<?xml version="1.0" encoding="utf-8" standalone="no"?>
<!DOCTYPE svg PUBLIC "-//W3C//DTD SVG 1.1//EN"
  "http://www.w3.org/Graphics/SVG/1.1/DTD/svg11.dtd">
<svg xmlns:xlink="http://www.w3.org/1999/xlink" width="907.2pt" height="711.8375pt" viewBox="0 0 907.2 711.8375" xmlns="http://www.w3.org/2000/svg" version="1.1">
 <metadata>
  <rdf:RDF xmlns:dc="http://purl.org/dc/elements/1.1/" xmlns:cc="http://creativecommons.org/ns#" xmlns:rdf="http://www.w3.org/1999/02/22-rdf-syntax-ns#">
   <cc:Work>
    <dc:type rdf:resource="http://purl.org/dc/dcmitype/StillImage"/>
    <dc:date>2025-06-04T10:13:49.948111</dc:date>
    <dc:format>image/svg+xml</dc:format>
    <dc:creator>
     <cc:Agent>
      <dc:title>Matplotlib v3.10.3, https://matplotlib.org/</dc:title>
     </cc:Agent>
    </dc:creator>
   </cc:Work>
  </rdf:RDF>
 </metadata>
 <defs>
  <style type="text/css">*{stroke-linejoin: round; stroke-linecap: butt}</style>
 </defs>
 <g id="figure_1">
  <g id="patch_1">
   <path d="M 0 711.8375 
L 907.2 711.8375 
L 907.2 0 
L 0 0 
z
" style="fill: #ffffff"/>
  </g>
  <g id="axes_1">
   <g id="patch_2">
    <path d="M 63 155.7815 
L 174.6 155.7815 
Q 180.18 155.7815 180.18 150.2375 
L 180.18 94.7975 
Q 180.18 89.2535 174.6 89.2535 
L 63 89.2535 
Q 57.42 89.2535 57.42 94.7975 
L 57.42 150.2375 
Q 57.42 155.7815 63 155.7815 
z
" clip-path="url(#p847edb161c)" style="fill: #e8f4fd; stroke: #000000; stroke-width: 2; stroke-linejoin: miter"/>
   </g>
   <g id="patch_3">
    <path d="M 63 266.6615 
L 174.6 266.6615 
Q 180.18 266.6615 180.18 261.1175 
L 180.18 205.6775 
Q 180.18 200.1335 174.6 200.1335 
L 63 200.1335 
Q 57.42 200.1335 57.42 205.6775 
L 57.42 261.1175 
Q 57.42 266.6615 63 266.6615 
z
" clip-path="url(#p847edb161c)" style="fill: #ffe6cc; stroke: #000000; stroke-width: 2; stroke-linejoin: miter"/>
   </g>
   <g id="patch_4">
    <path d="M 286.2 266.6615 
L 397.8 266.6615 
Q 403.38 266.6615 403.38 261.1175 
L 403.38 205.6775 
Q 403.38 200.1335 397.8 200.1335 
L 286.2 200.1335 
Q 280.62 200.1335 280.62 205.6775 
L 280.62 261.1175 
Q 280.62 266.6615 286.2 266.6615 
z
" clip-path="url(#p847edb161c)" style="fill: #e1d5e7; stroke: #000000; stroke-width: 2; stroke-linejoin: miter"/>
   </g>
   <g id="patch_5">
    <path d="M 286.2 377.5415 
L 397.8 377.5415 
Q 403.38 377.5415 403.38 371.9975 
L 403.38 316.5575 
Q 403.38 311.0135 397.8 311.0135 
L 286.2 311.0135 
Q 280.62 311.0135 280.62 316.5575 
L 280.62 371.9975 
Q 280.62 377.5415 286.2 377.5415 
z
" clip-path="url(#p847edb161c)" style="fill: #e1d5e7; stroke: #000000; stroke-width: 2; stroke-linejoin: miter"/>
   </g>
   <g id="patch_6">
    <path d="M 481.5 377.5415 
L 648.9 377.5415 
Q 654.48 377.5415 654.48 371.9975 
L 654.48 316.5575 
Q 654.48 311.0135 648.9 311.0135 
L 481.5 311.0135 
Q 475.92 311.0135 475.92 316.5575 
L 475.92 371.9975 
Q 475.92 377.5415 481.5 377.5415 
z
" clip-path="url(#p847edb161c)" style="fill: #f8d7da; stroke: #000000; stroke-width: 2; stroke-linejoin: miter"/>
   </g>
   <g id="patch_7">
    <path d="M 481.5 488.4215 
L 648.9 488.4215 
Q 654.48 488.4215 654.48 482.8775 
L 654.48 427.4375 
Q 654.48 421.8935 648.9 421.8935 
L 481.5 421.8935 
Q 475.92 421.8935 475.92 427.4375 
L 475.92 482.8775 
Q 475.92 488.4215 481.5 488.4215 
z
" clip-path="url(#p847edb161c)" style="fill: #e1d5e7; stroke: #000000; stroke-width: 2; stroke-linejoin: miter"/>
   </g>
   <g id="patch_8">
    <path d="M 481.5 599.3015 
L 648.9 599.3015 
Q 654.48 599.3015 654.48 593.7575 
L 654.48 538.3175 
Q 654.48 532.7735 648.9 532.7735 
L 481.5 532.7735 
Q 475.92 532.7735 475.92 538.3175 
L 475.92 593.7575 
Q 475.92 599.3015 481.5 599.3015 
z
" clip-path="url(#p847edb161c)" style="fill: #e1d5e7; stroke: #000000; stroke-width: 2; stroke-linejoin: miter"/>
   </g>
   <g id="patch_9">
    <path d="M 704.7 432.9815 
L 816.3 432.9815 
Q 821.88 432.9815 821.88 427.4375 
L 821.88 371.9975 
Q 821.88 366.4535 816.3 366.4535 
L 704.7 366.4535 
Q 699.12 366.4535 699.12 371.9975 
L 699.12 427.4375 
Q 699.12 432.9815 704.7 432.9815 
z
" clip-path="url(#p847edb161c)" style="fill: #d5f4e6; stroke: #000000; stroke-width: 2; stroke-linejoin: miter"/>
   </g>
   <g id="patch_10">
    <path d="M 704.7 543.8615 
L 816.3 543.8615 
Q 821.88 543.8615 821.88 538.3175 
L 821.88 482.8775 
Q 821.88 477.3335 816.3 477.3335 
L 704.7 477.3335 
Q 699.12 477.3335 699.12 482.8775 
L 699.12 538.3175 
Q 699.12 543.8615 704.7 543.8615 
z
" clip-path="url(#p847edb161c)" style="fill: #d5f4e6; stroke: #000000; stroke-width: 2; stroke-linejoin: miter"/>
   </g>
   <g id="patch_11">
    <path d="M 704.7 654.7415 
L 816.3 654.7415 
Q 821.88 654.7415 821.88 649.1975 
L 821.88 593.7575 
Q 821.88 588.2135 816.3 588.2135 
L 704.7 588.2135 
Q 699.12 588.2135 699.12 593.7575 
L 699.12 649.1975 
Q 699.12 654.7415 704.7 654.7415 
z
" clip-path="url(#p847edb161c)" style="fill: #fff2cc; stroke: #000000; stroke-width: 2; stroke-linejoin: miter"/>
   </g>
   <g id="patch_12">
    <path d="M 118.8 155.235356 
Q 118.8 177.954949 118.8 198.438473 
" style="fill: none; stroke: #000000; stroke-width: 2; stroke-linecap: round"/>
    <path d="M 122.8 190.438473 
L 118.8 198.438473 
L 114.8 190.438473 
" style="fill: none; stroke: #000000; stroke-width: 2; stroke-linecap: round"/>
   </g>
   <g id="patch_13">
    <path d="M 178.145398 126.040024 
Q 230.400258 177.957756 281.06887 228.299474 
" style="fill: none; stroke: #000000; stroke-width: 2; stroke-linecap: round"/>
    <path d="M 278.212998 219.823391 
L 281.06887 228.299474 
L 272.57448 225.498522 
" style="fill: none; stroke: #000000; stroke-width: 2; stroke-linecap: round"/>
   </g>
   <g id="patch_14">
    <path d="M 342 266.115356 
Q 342 288.834949 342 309.318473 
" style="fill: none; stroke: #000000; stroke-width: 2; stroke-linecap: round"/>
    <path d="M 346 301.318473 
L 342 309.318473 
L 338 301.318473 
" style="fill: none; stroke: #000000; stroke-width: 2; stroke-linecap: round"/>
   </g>
   <g id="patch_15">
    <path d="M 402.798807 344.2775 
Q 439.649161 344.2775 474.263447 344.2775 
" style="fill: none; stroke: #000000; stroke-width: 2; stroke-linecap: round"/>
    <path d="M 466.263447 340.2775 
L 474.263447 344.2775 
L 466.263447 348.2775 
" style="fill: none; stroke: #000000; stroke-width: 2; stroke-linecap: round"/>
   </g>
   <g id="patch_16">
    <path d="M 565.2 376.995356 
Q 565.2 399.714949 565.2 420.198473 
" style="fill: none; stroke: #000000; stroke-width: 2; stroke-linecap: round"/>
    <path d="M 569.2 412.198473 
L 565.2 420.198473 
L 561.2 412.198473 
" style="fill: none; stroke: #000000; stroke-width: 2; stroke-linecap: round"/>
   </g>
   <g id="patch_17">
    <path d="M 565.2 487.875356 
Q 565.2 510.594949 565.2 531.078473 
" style="fill: none; stroke: #000000; stroke-width: 2; stroke-linecap: round"/>
    <path d="M 569.2 523.078473 
L 565.2 531.078473 
L 561.2 523.078473 
" style="fill: none; stroke: #000000; stroke-width: 2; stroke-linecap: round"/>
   </g>
   <g id="patch_18">
    <path d="M 179.368279 234.893558 
Q 439.647398 316.556684 697.792996 397.550413 
" style="fill: none; stroke: #000000; stroke-width: 2; stroke-linecap: round"/>
    <path d="M 691.357335 391.33895 
L 697.792996 397.550413 
L 688.962429 398.972064 
" style="fill: none; stroke: #000000; stroke-width: 2; stroke-linecap: round"/>
   </g>
   <g id="patch_19">
    <path d="M 650.489639 561.299349 
Q 676.799482 482.879045 702.398089 406.57868 
" style="fill: none; stroke: #000000; stroke-width: 2; stroke-linecap: round"/>
    <path d="M 696.061233 412.89091 
L 702.398089 406.57868 
L 703.64576 415.435503 
" style="fill: none; stroke: #000000; stroke-width: 2; stroke-linecap: round"/>
   </g>
   <g id="patch_20">
    <path d="M 760.5 432.435356 
Q 760.5 455.154949 760.5 475.638473 
" style="fill: none; stroke: #000000; stroke-width: 2; stroke-linecap: round"/>
    <path d="M 764.5 467.638473 
L 760.5 475.638473 
L 756.5 467.638473 
" style="fill: none; stroke: #000000; stroke-width: 2; stroke-linecap: round"/>
   </g>
   <g id="patch_21">
    <path d="M 760.5 543.315356 
Q 760.5 566.034949 760.5 586.518473 
" style="fill: none; stroke: #000000; stroke-width: 2; stroke-linecap: round"/>
    <path d="M 764.5 578.518473 
L 760.5 586.518473 
L 756.5 578.518473 
" style="fill: none; stroke: #000000; stroke-width: 2; stroke-linecap: round"/>
   </g>
   <g id="text_1">
    <!-- EEG Input -->
    <g transform="translate(91.176563 119.677969) scale(0.1 -0.1)">
     <defs>
      <path id="DejaVuSans-Bold-45" d="M 588 4666 
L 3834 4666 
L 3834 3756 
L 1791 3756 
L 1791 2888 
L 3713 2888 
L 3713 1978 
L 1791 1978 
L 1791 909 
L 3903 909 
L 3903 0 
L 588 0 
L 588 4666 
z
" transform="scale(0.015625)"/>
      <path id="DejaVuSans-Bold-47" d="M 4781 347 
Q 4331 128 3847 18 
Q 3363 -91 2847 -91 
Q 1681 -91 1000 561 
Q 319 1213 319 2328 
Q 319 3456 1012 4103 
Q 1706 4750 2913 4750 
Q 3378 4750 3804 4662 
Q 4231 4575 4609 4403 
L 4609 3438 
Q 4219 3659 3833 3768 
Q 3447 3878 3059 3878 
Q 2341 3878 1952 3476 
Q 1563 3075 1563 2328 
Q 1563 1588 1938 1184 
Q 2313 781 3003 781 
Q 3191 781 3352 804 
Q 3513 828 3641 878 
L 3641 1784 
L 2906 1784 
L 2906 2591 
L 4781 2591 
L 4781 347 
z
" transform="scale(0.015625)"/>
      <path id="DejaVuSans-Bold-20" transform="scale(0.015625)"/>
      <path id="DejaVuSans-Bold-49" d="M 588 4666 
L 1791 4666 
L 1791 0 
L 588 0 
L 588 4666 
z
" transform="scale(0.015625)"/>
      <path id="DejaVuSans-Bold-6e" d="M 4056 2131 
L 4056 0 
L 2931 0 
L 2931 347 
L 2931 1631 
Q 2931 2084 2911 2256 
Q 2891 2428 2841 2509 
Q 2775 2619 2662 2680 
Q 2550 2741 2406 2741 
Q 2056 2741 1856 2470 
Q 1656 2200 1656 1722 
L 1656 0 
L 538 0 
L 538 3500 
L 1656 3500 
L 1656 2988 
Q 1909 3294 2193 3439 
Q 2478 3584 2822 3584 
Q 3428 3584 3742 3212 
Q 4056 2841 4056 2131 
z
" transform="scale(0.015625)"/>
      <path id="DejaVuSans-Bold-70" d="M 1656 506 
L 1656 -1331 
L 538 -1331 
L 538 3500 
L 1656 3500 
L 1656 2988 
Q 1888 3294 2169 3439 
Q 2450 3584 2816 3584 
Q 3463 3584 3878 3070 
Q 4294 2556 4294 1747 
Q 4294 938 3878 423 
Q 3463 -91 2816 -91 
Q 2450 -91 2169 54 
Q 1888 200 1656 506 
z
M 2400 2772 
Q 2041 2772 1848 2508 
Q 1656 2244 1656 1747 
Q 1656 1250 1848 986 
Q 2041 722 2400 722 
Q 2759 722 2948 984 
Q 3138 1247 3138 1747 
Q 3138 2247 2948 2509 
Q 2759 2772 2400 2772 
z
" transform="scale(0.015625)"/>
      <path id="DejaVuSans-Bold-75" d="M 500 1363 
L 500 3500 
L 1625 3500 
L 1625 3150 
Q 1625 2866 1622 2436 
Q 1619 2006 1619 1863 
Q 1619 1441 1641 1255 
Q 1663 1069 1716 984 
Q 1784 875 1895 815 
Q 2006 756 2150 756 
Q 2500 756 2700 1025 
Q 2900 1294 2900 1772 
L 2900 3500 
L 4019 3500 
L 4019 0 
L 2900 0 
L 2900 506 
Q 2647 200 2364 54 
Q 2081 -91 1741 -91 
Q 1134 -91 817 281 
Q 500 653 500 1363 
z
" transform="scale(0.015625)"/>
      <path id="DejaVuSans-Bold-74" d="M 1759 4494 
L 1759 3500 
L 2913 3500 
L 2913 2700 
L 1759 2700 
L 1759 1216 
Q 1759 972 1856 886 
Q 1953 800 2241 800 
L 2816 800 
L 2816 0 
L 1856 0 
Q 1194 0 917 276 
Q 641 553 641 1216 
L 641 2700 
L 84 2700 
L 84 3500 
L 641 3500 
L 641 4494 
L 1759 4494 
z
" transform="scale(0.015625)"/>
     </defs>
     <use xlink:href="#DejaVuSans-Bold-45"/>
     <use xlink:href="#DejaVuSans-Bold-45" transform="translate(68.310547 0)"/>
     <use xlink:href="#DejaVuSans-Bold-47" transform="translate(136.621094 0)"/>
     <use xlink:href="#DejaVuSans-Bold-20" transform="translate(218.701172 0)"/>
     <use xlink:href="#DejaVuSans-Bold-49" transform="translate(253.515625 0)"/>
     <use xlink:href="#DejaVuSans-Bold-6e" transform="translate(290.722656 0)"/>
     <use xlink:href="#DejaVuSans-Bold-70" transform="translate(361.914062 0)"/>
     <use xlink:href="#DejaVuSans-Bold-75" transform="translate(433.496094 0)"/>
     <use xlink:href="#DejaVuSans-Bold-74" transform="translate(504.6875 0)"/>
    </g>
    <!-- (14 × 128) -->
    <g transform="translate(89.164063 130.875781) scale(0.1 -0.1)">
     <defs>
      <path id="DejaVuSans-Bold-28" d="M 2413 -844 
L 1484 -844 
Q 1006 -72 778 623 
Q 550 1319 550 2003 
Q 550 2688 779 3389 
Q 1009 4091 1484 4856 
L 2413 4856 
Q 2013 4116 1813 3408 
Q 1613 2700 1613 2009 
Q 1613 1319 1811 609 
Q 2009 -100 2413 -844 
z
" transform="scale(0.015625)"/>
      <path id="DejaVuSans-Bold-31" d="M 750 831 
L 1813 831 
L 1813 3847 
L 722 3622 
L 722 4441 
L 1806 4666 
L 2950 4666 
L 2950 831 
L 4013 831 
L 4013 0 
L 750 0 
L 750 831 
z
" transform="scale(0.015625)"/>
      <path id="DejaVuSans-Bold-34" d="M 2356 3675 
L 1038 1722 
L 2356 1722 
L 2356 3675 
z
M 2156 4666 
L 3494 4666 
L 3494 1722 
L 4159 1722 
L 4159 850 
L 3494 850 
L 3494 0 
L 2356 0 
L 2356 850 
L 288 850 
L 288 1881 
L 2156 4666 
z
" transform="scale(0.015625)"/>
      <path id="DejaVuSans-Bold-d7" d="M 4563 3359 
L 3206 2003 
L 4563 653 
L 4038 128 
L 2681 1478 
L 1325 128 
L 800 653 
L 2156 2003 
L 800 3359 
L 1325 3884 
L 2681 2528 
L 4038 3884 
L 4563 3359 
z
" transform="scale(0.015625)"/>
      <path id="DejaVuSans-Bold-32" d="M 1844 884 
L 3897 884 
L 3897 0 
L 506 0 
L 506 884 
L 2209 2388 
Q 2438 2594 2547 2791 
Q 2656 2988 2656 3200 
Q 2656 3528 2436 3728 
Q 2216 3928 1850 3928 
Q 1569 3928 1234 3808 
Q 900 3688 519 3450 
L 519 4475 
Q 925 4609 1322 4679 
Q 1719 4750 2100 4750 
Q 2938 4750 3402 4381 
Q 3866 4013 3866 3353 
Q 3866 2972 3669 2642 
Q 3472 2313 2841 1759 
L 1844 884 
z
" transform="scale(0.015625)"/>
      <path id="DejaVuSans-Bold-38" d="M 2228 2088 
Q 1891 2088 1709 1903 
Q 1528 1719 1528 1375 
Q 1528 1031 1709 848 
Q 1891 666 2228 666 
Q 2563 666 2741 848 
Q 2919 1031 2919 1375 
Q 2919 1722 2741 1905 
Q 2563 2088 2228 2088 
z
M 1350 2484 
Q 925 2613 709 2878 
Q 494 3144 494 3541 
Q 494 4131 934 4440 
Q 1375 4750 2228 4750 
Q 3075 4750 3515 4442 
Q 3956 4134 3956 3541 
Q 3956 3144 3739 2878 
Q 3522 2613 3097 2484 
Q 3572 2353 3814 2058 
Q 4056 1763 4056 1313 
Q 4056 619 3595 264 
Q 3134 -91 2228 -91 
Q 1319 -91 855 264 
Q 391 619 391 1313 
Q 391 1763 633 2058 
Q 875 2353 1350 2484 
z
M 1631 3419 
Q 1631 3141 1786 2991 
Q 1941 2841 2228 2841 
Q 2509 2841 2662 2991 
Q 2816 3141 2816 3419 
Q 2816 3697 2662 3845 
Q 2509 3994 2228 3994 
Q 1941 3994 1786 3844 
Q 1631 3694 1631 3419 
z
" transform="scale(0.015625)"/>
      <path id="DejaVuSans-Bold-29" d="M 513 -844 
Q 913 -100 1113 609 
Q 1313 1319 1313 2009 
Q 1313 2700 1113 3408 
Q 913 4116 513 4856 
L 1441 4856 
Q 1916 4091 2145 3389 
Q 2375 2688 2375 2003 
Q 2375 1319 2147 623 
Q 1919 -72 1441 -844 
L 513 -844 
z
" transform="scale(0.015625)"/>
     </defs>
     <use xlink:href="#DejaVuSans-Bold-28"/>
     <use xlink:href="#DejaVuSans-Bold-31" transform="translate(45.703125 0)"/>
     <use xlink:href="#DejaVuSans-Bold-34" transform="translate(115.283203 0)"/>
     <use xlink:href="#DejaVuSans-Bold-20" transform="translate(184.863281 0)"/>
     <use xlink:href="#DejaVuSans-Bold-d7" transform="translate(219.677734 0)"/>
     <use xlink:href="#DejaVuSans-Bold-20" transform="translate(303.466797 0)"/>
     <use xlink:href="#DejaVuSans-Bold-31" transform="translate(338.28125 0)"/>
     <use xlink:href="#DejaVuSans-Bold-32" transform="translate(407.861328 0)"/>
     <use xlink:href="#DejaVuSans-Bold-38" transform="translate(477.441406 0)"/>
     <use xlink:href="#DejaVuSans-Bold-29" transform="translate(547.021484 0)"/>
    </g>
   </g>
   <g id="text_2">
    <!-- Wavelet Features -->
    <g transform="translate(69.442188 230.557969) scale(0.1 -0.1)">
     <defs>
      <path id="DejaVuSans-Bold-57" d="M 191 4666 
L 1344 4666 
L 2150 1275 
L 2950 4666 
L 4109 4666 
L 4909 1275 
L 5716 4666 
L 6859 4666 
L 5759 0 
L 4372 0 
L 3525 3547 
L 2688 0 
L 1300 0 
L 191 4666 
z
" transform="scale(0.015625)"/>
      <path id="DejaVuSans-Bold-61" d="M 2106 1575 
Q 1756 1575 1579 1456 
Q 1403 1338 1403 1106 
Q 1403 894 1545 773 
Q 1688 653 1941 653 
Q 2256 653 2472 879 
Q 2688 1106 2688 1447 
L 2688 1575 
L 2106 1575 
z
M 3816 1997 
L 3816 0 
L 2688 0 
L 2688 519 
Q 2463 200 2181 54 
Q 1900 -91 1497 -91 
Q 953 -91 614 226 
Q 275 544 275 1050 
Q 275 1666 698 1953 
Q 1122 2241 2028 2241 
L 2688 2241 
L 2688 2328 
Q 2688 2594 2478 2717 
Q 2269 2841 1825 2841 
Q 1466 2841 1156 2769 
Q 847 2697 581 2553 
L 581 3406 
Q 941 3494 1303 3539 
Q 1666 3584 2028 3584 
Q 2975 3584 3395 3211 
Q 3816 2838 3816 1997 
z
" transform="scale(0.015625)"/>
      <path id="DejaVuSans-Bold-76" d="M 97 3500 
L 1216 3500 
L 2088 1081 
L 2956 3500 
L 4078 3500 
L 2700 0 
L 1472 0 
L 97 3500 
z
" transform="scale(0.015625)"/>
      <path id="DejaVuSans-Bold-65" d="M 4031 1759 
L 4031 1441 
L 1416 1441 
Q 1456 1047 1700 850 
Q 1944 653 2381 653 
Q 2734 653 3104 758 
Q 3475 863 3866 1075 
L 3866 213 
Q 3469 63 3072 -14 
Q 2675 -91 2278 -91 
Q 1328 -91 801 392 
Q 275 875 275 1747 
Q 275 2603 792 3093 
Q 1309 3584 2216 3584 
Q 3041 3584 3536 3087 
Q 4031 2591 4031 1759 
z
M 2881 2131 
Q 2881 2450 2695 2645 
Q 2509 2841 2209 2841 
Q 1884 2841 1681 2658 
Q 1478 2475 1428 2131 
L 2881 2131 
z
" transform="scale(0.015625)"/>
      <path id="DejaVuSans-Bold-6c" d="M 538 4863 
L 1656 4863 
L 1656 0 
L 538 0 
L 538 4863 
z
" transform="scale(0.015625)"/>
      <path id="DejaVuSans-Bold-46" d="M 588 4666 
L 3834 4666 
L 3834 3756 
L 1791 3756 
L 1791 2888 
L 3713 2888 
L 3713 1978 
L 1791 1978 
L 1791 0 
L 588 0 
L 588 4666 
z
" transform="scale(0.015625)"/>
      <path id="DejaVuSans-Bold-72" d="M 3138 2547 
Q 2991 2616 2845 2648 
Q 2700 2681 2553 2681 
Q 2122 2681 1889 2404 
Q 1656 2128 1656 1613 
L 1656 0 
L 538 0 
L 538 3500 
L 1656 3500 
L 1656 2925 
Q 1872 3269 2151 3426 
Q 2431 3584 2822 3584 
Q 2878 3584 2943 3579 
Q 3009 3575 3134 3559 
L 3138 2547 
z
" transform="scale(0.015625)"/>
      <path id="DejaVuSans-Bold-73" d="M 3272 3391 
L 3272 2541 
Q 2913 2691 2578 2766 
Q 2244 2841 1947 2841 
Q 1628 2841 1473 2761 
Q 1319 2681 1319 2516 
Q 1319 2381 1436 2309 
Q 1553 2238 1856 2203 
L 2053 2175 
Q 2913 2066 3209 1816 
Q 3506 1566 3506 1031 
Q 3506 472 3093 190 
Q 2681 -91 1863 -91 
Q 1516 -91 1145 -36 
Q 775 19 384 128 
L 384 978 
Q 719 816 1070 734 
Q 1422 653 1784 653 
Q 2113 653 2278 743 
Q 2444 834 2444 1013 
Q 2444 1163 2330 1236 
Q 2216 1309 1875 1350 
L 1678 1375 
Q 931 1469 631 1722 
Q 331 1975 331 2491 
Q 331 3047 712 3315 
Q 1094 3584 1881 3584 
Q 2191 3584 2531 3537 
Q 2872 3491 3272 3391 
z
" transform="scale(0.015625)"/>
     </defs>
     <use xlink:href="#DejaVuSans-Bold-57"/>
     <use xlink:href="#DejaVuSans-Bold-61" transform="translate(106.677734 0)"/>
     <use xlink:href="#DejaVuSans-Bold-76" transform="translate(174.158203 0)"/>
     <use xlink:href="#DejaVuSans-Bold-65" transform="translate(239.34375 0)"/>
     <use xlink:href="#DejaVuSans-Bold-6c" transform="translate(307.166016 0)"/>
     <use xlink:href="#DejaVuSans-Bold-65" transform="translate(341.443359 0)"/>
     <use xlink:href="#DejaVuSans-Bold-74" transform="translate(409.265625 0)"/>
     <use xlink:href="#DejaVuSans-Bold-20" transform="translate(457.068359 0)"/>
     <use xlink:href="#DejaVuSans-Bold-46" transform="translate(491.882812 0)"/>
     <use xlink:href="#DejaVuSans-Bold-65" transform="translate(556.193359 0)"/>
     <use xlink:href="#DejaVuSans-Bold-61" transform="translate(624.015625 0)"/>
     <use xlink:href="#DejaVuSans-Bold-74" transform="translate(691.496094 0)"/>
     <use xlink:href="#DejaVuSans-Bold-75" transform="translate(739.298828 0)"/>
     <use xlink:href="#DejaVuSans-Bold-72" transform="translate(810.490234 0)"/>
     <use xlink:href="#DejaVuSans-Bold-65" transform="translate(859.806641 0)"/>
     <use xlink:href="#DejaVuSans-Bold-73" transform="translate(927.628906 0)"/>
    </g>
    <!-- (280 features) -->
    <g transform="translate(78.329688 241.755781) scale(0.1 -0.1)">
     <defs>
      <path id="DejaVuSans-Bold-30" d="M 2944 2338 
Q 2944 3213 2780 3570 
Q 2616 3928 2228 3928 
Q 1841 3928 1675 3570 
Q 1509 3213 1509 2338 
Q 1509 1453 1675 1090 
Q 1841 728 2228 728 
Q 2613 728 2778 1090 
Q 2944 1453 2944 2338 
z
M 4147 2328 
Q 4147 1169 3647 539 
Q 3147 -91 2228 -91 
Q 1306 -91 806 539 
Q 306 1169 306 2328 
Q 306 3491 806 4120 
Q 1306 4750 2228 4750 
Q 3147 4750 3647 4120 
Q 4147 3491 4147 2328 
z
" transform="scale(0.015625)"/>
      <path id="DejaVuSans-Bold-66" d="M 2841 4863 
L 2841 4128 
L 2222 4128 
Q 1984 4128 1890 4042 
Q 1797 3956 1797 3744 
L 1797 3500 
L 2753 3500 
L 2753 2700 
L 1797 2700 
L 1797 0 
L 678 0 
L 678 2700 
L 122 2700 
L 122 3500 
L 678 3500 
L 678 3744 
Q 678 4316 997 4589 
Q 1316 4863 1984 4863 
L 2841 4863 
z
" transform="scale(0.015625)"/>
     </defs>
     <use xlink:href="#DejaVuSans-Bold-28"/>
     <use xlink:href="#DejaVuSans-Bold-32" transform="translate(45.703125 0)"/>
     <use xlink:href="#DejaVuSans-Bold-38" transform="translate(115.283203 0)"/>
     <use xlink:href="#DejaVuSans-Bold-30" transform="translate(184.863281 0)"/>
     <use xlink:href="#DejaVuSans-Bold-20" transform="translate(254.443359 0)"/>
     <use xlink:href="#DejaVuSans-Bold-66" transform="translate(289.257812 0)"/>
     <use xlink:href="#DejaVuSans-Bold-65" transform="translate(332.763672 0)"/>
     <use xlink:href="#DejaVuSans-Bold-61" transform="translate(400.585938 0)"/>
     <use xlink:href="#DejaVuSans-Bold-74" transform="translate(468.066406 0)"/>
     <use xlink:href="#DejaVuSans-Bold-75" transform="translate(515.869141 0)"/>
     <use xlink:href="#DejaVuSans-Bold-72" transform="translate(587.060547 0)"/>
     <use xlink:href="#DejaVuSans-Bold-65" transform="translate(636.376953 0)"/>
     <use xlink:href="#DejaVuSans-Bold-73" transform="translate(704.199219 0)"/>
     <use xlink:href="#DejaVuSans-Bold-29" transform="translate(763.720703 0)"/>
    </g>
   </g>
   <g id="text_3">
    <!-- Input Projection -->
    <g transform="translate(296.578125 230.518906) scale(0.1 -0.1)">
     <defs>
      <path id="DejaVuSans-Bold-50" d="M 588 4666 
L 2584 4666 
Q 3475 4666 3951 4270 
Q 4428 3875 4428 3144 
Q 4428 2409 3951 2014 
Q 3475 1619 2584 1619 
L 1791 1619 
L 1791 0 
L 588 0 
L 588 4666 
z
M 1791 3794 
L 1791 2491 
L 2456 2491 
Q 2806 2491 2997 2661 
Q 3188 2831 3188 3144 
Q 3188 3456 2997 3625 
Q 2806 3794 2456 3794 
L 1791 3794 
z
" transform="scale(0.015625)"/>
      <path id="DejaVuSans-Bold-6f" d="M 2203 2784 
Q 1831 2784 1636 2517 
Q 1441 2250 1441 1747 
Q 1441 1244 1636 976 
Q 1831 709 2203 709 
Q 2569 709 2762 976 
Q 2956 1244 2956 1747 
Q 2956 2250 2762 2517 
Q 2569 2784 2203 2784 
z
M 2203 3584 
Q 3106 3584 3614 3096 
Q 4122 2609 4122 1747 
Q 4122 884 3614 396 
Q 3106 -91 2203 -91 
Q 1297 -91 786 396 
Q 275 884 275 1747 
Q 275 2609 786 3096 
Q 1297 3584 2203 3584 
z
" transform="scale(0.015625)"/>
      <path id="DejaVuSans-Bold-6a" d="M 538 3500 
L 1656 3500 
L 1656 63 
Q 1656 -641 1318 -1011 
Q 981 -1381 341 -1381 
L -213 -1381 
L -213 -647 
L -19 -647 
Q 300 -647 419 -503 
Q 538 -359 538 63 
L 538 3500 
z
M 538 4863 
L 1656 4863 
L 1656 3950 
L 538 3950 
L 538 4863 
z
" transform="scale(0.015625)"/>
      <path id="DejaVuSans-Bold-63" d="M 3366 3391 
L 3366 2478 
Q 3138 2634 2908 2709 
Q 2678 2784 2431 2784 
Q 1963 2784 1702 2511 
Q 1441 2238 1441 1747 
Q 1441 1256 1702 982 
Q 1963 709 2431 709 
Q 2694 709 2930 787 
Q 3166 866 3366 1019 
L 3366 103 
Q 3103 6 2833 -42 
Q 2563 -91 2291 -91 
Q 1344 -91 809 395 
Q 275 881 275 1747 
Q 275 2613 809 3098 
Q 1344 3584 2291 3584 
Q 2566 3584 2833 3536 
Q 3100 3488 3366 3391 
z
" transform="scale(0.015625)"/>
      <path id="DejaVuSans-Bold-69" d="M 538 3500 
L 1656 3500 
L 1656 0 
L 538 0 
L 538 3500 
z
M 538 4863 
L 1656 4863 
L 1656 3950 
L 538 3950 
L 538 4863 
z
" transform="scale(0.015625)"/>
     </defs>
     <use xlink:href="#DejaVuSans-Bold-49"/>
     <use xlink:href="#DejaVuSans-Bold-6e" transform="translate(37.207031 0)"/>
     <use xlink:href="#DejaVuSans-Bold-70" transform="translate(108.398438 0)"/>
     <use xlink:href="#DejaVuSans-Bold-75" transform="translate(179.980469 0)"/>
     <use xlink:href="#DejaVuSans-Bold-74" transform="translate(251.171875 0)"/>
     <use xlink:href="#DejaVuSans-Bold-20" transform="translate(298.974609 0)"/>
     <use xlink:href="#DejaVuSans-Bold-50" transform="translate(333.789062 0)"/>
     <use xlink:href="#DejaVuSans-Bold-72" transform="translate(407.080078 0)"/>
     <use xlink:href="#DejaVuSans-Bold-6f" transform="translate(456.396484 0)"/>
     <use xlink:href="#DejaVuSans-Bold-6a" transform="translate(525.097656 0)"/>
     <use xlink:href="#DejaVuSans-Bold-65" transform="translate(559.375 0)"/>
     <use xlink:href="#DejaVuSans-Bold-63" transform="translate(627.197266 0)"/>
     <use xlink:href="#DejaVuSans-Bold-74" transform="translate(686.474609 0)"/>
     <use xlink:href="#DejaVuSans-Bold-69" transform="translate(734.277344 0)"/>
     <use xlink:href="#DejaVuSans-Bold-6f" transform="translate(768.554688 0)"/>
     <use xlink:href="#DejaVuSans-Bold-6e" transform="translate(837.255859 0)"/>
    </g>
    <!-- (14 → 64) -->
    <g transform="translate(315.842969 241.794844) scale(0.1 -0.1)">
     <defs>
      <path id="DejaVuSans-Bold-2192" d="M 5050 2225 
L 5050 1788 
L 3822 559 
L 3369 1013 
L 3988 1631 
L 366 1631 
L 366 2381 
L 3988 2381 
L 3369 3000 
L 3822 3453 
L 5050 2225 
z
" transform="scale(0.015625)"/>
      <path id="DejaVuSans-Bold-36" d="M 2316 2303 
Q 2000 2303 1842 2098 
Q 1684 1894 1684 1484 
Q 1684 1075 1842 870 
Q 2000 666 2316 666 
Q 2634 666 2792 870 
Q 2950 1075 2950 1484 
Q 2950 1894 2792 2098 
Q 2634 2303 2316 2303 
z
M 3803 4544 
L 3803 3681 
Q 3506 3822 3243 3889 
Q 2981 3956 2731 3956 
Q 2194 3956 1894 3657 
Q 1594 3359 1544 2772 
Q 1750 2925 1990 3001 
Q 2231 3078 2516 3078 
Q 3231 3078 3670 2659 
Q 4109 2241 4109 1563 
Q 4109 813 3618 361 
Q 3128 -91 2303 -91 
Q 1394 -91 895 523 
Q 397 1138 397 2266 
Q 397 3422 980 4083 
Q 1563 4744 2578 4744 
Q 2900 4744 3203 4694 
Q 3506 4644 3803 4544 
z
" transform="scale(0.015625)"/>
     </defs>
     <use xlink:href="#DejaVuSans-Bold-28"/>
     <use xlink:href="#DejaVuSans-Bold-31" transform="translate(45.703125 0)"/>
     <use xlink:href="#DejaVuSans-Bold-34" transform="translate(115.283203 0)"/>
     <use xlink:href="#DejaVuSans-Bold-20" transform="translate(184.863281 0)"/>
     <use xlink:href="#DejaVuSans-Bold-2192" transform="translate(219.677734 0)"/>
     <use xlink:href="#DejaVuSans-Bold-20" transform="translate(303.466797 0)"/>
     <use xlink:href="#DejaVuSans-Bold-36" transform="translate(338.28125 0)"/>
     <use xlink:href="#DejaVuSans-Bold-34" transform="translate(407.861328 0)"/>
     <use xlink:href="#DejaVuSans-Bold-29" transform="translate(477.441406 0)"/>
    </g>
   </g>
   <g id="text_4">
    <!-- Positional -->
    <g transform="translate(314.023438 341.398906) scale(0.1 -0.1)">
     <use xlink:href="#DejaVuSans-Bold-50"/>
     <use xlink:href="#DejaVuSans-Bold-6f" transform="translate(73.291016 0)"/>
     <use xlink:href="#DejaVuSans-Bold-73" transform="translate(141.992188 0)"/>
     <use xlink:href="#DejaVuSans-Bold-69" transform="translate(201.513672 0)"/>
     <use xlink:href="#DejaVuSans-Bold-74" transform="translate(235.791016 0)"/>
     <use xlink:href="#DejaVuSans-Bold-69" transform="translate(283.59375 0)"/>
     <use xlink:href="#DejaVuSans-Bold-6f" transform="translate(317.871094 0)"/>
     <use xlink:href="#DejaVuSans-Bold-6e" transform="translate(386.572266 0)"/>
     <use xlink:href="#DejaVuSans-Bold-61" transform="translate(457.763672 0)"/>
     <use xlink:href="#DejaVuSans-Bold-6c" transform="translate(525.244141 0)"/>
    </g>
    <!-- Encoding -->
    <g transform="translate(316.194531 352.596719) scale(0.1 -0.1)">
     <defs>
      <path id="DejaVuSans-Bold-64" d="M 2919 2988 
L 2919 4863 
L 4044 4863 
L 4044 0 
L 2919 0 
L 2919 506 
Q 2688 197 2409 53 
Q 2131 -91 1766 -91 
Q 1119 -91 703 423 
Q 288 938 288 1747 
Q 288 2556 703 3070 
Q 1119 3584 1766 3584 
Q 2128 3584 2408 3439 
Q 2688 3294 2919 2988 
z
M 2181 722 
Q 2541 722 2730 984 
Q 2919 1247 2919 1747 
Q 2919 2247 2730 2509 
Q 2541 2772 2181 2772 
Q 1825 2772 1636 2509 
Q 1447 2247 1447 1747 
Q 1447 1247 1636 984 
Q 1825 722 2181 722 
z
" transform="scale(0.015625)"/>
      <path id="DejaVuSans-Bold-67" d="M 2919 594 
Q 2688 288 2409 144 
Q 2131 0 1766 0 
Q 1125 0 706 504 
Q 288 1009 288 1791 
Q 288 2575 706 3076 
Q 1125 3578 1766 3578 
Q 2131 3578 2409 3434 
Q 2688 3291 2919 2981 
L 2919 3500 
L 4044 3500 
L 4044 353 
Q 4044 -491 3511 -936 
Q 2978 -1381 1966 -1381 
Q 1638 -1381 1331 -1331 
Q 1025 -1281 716 -1178 
L 716 -306 
Q 1009 -475 1290 -558 
Q 1572 -641 1856 -641 
Q 2406 -641 2662 -400 
Q 2919 -159 2919 353 
L 2919 594 
z
M 2181 2772 
Q 1834 2772 1640 2515 
Q 1447 2259 1447 1791 
Q 1447 1309 1634 1061 
Q 1822 813 2181 813 
Q 2531 813 2725 1069 
Q 2919 1325 2919 1791 
Q 2919 2259 2725 2515 
Q 2531 2772 2181 2772 
z
" transform="scale(0.015625)"/>
     </defs>
     <use xlink:href="#DejaVuSans-Bold-45"/>
     <use xlink:href="#DejaVuSans-Bold-6e" transform="translate(68.310547 0)"/>
     <use xlink:href="#DejaVuSans-Bold-63" transform="translate(139.501953 0)"/>
     <use xlink:href="#DejaVuSans-Bold-6f" transform="translate(198.779297 0)"/>
     <use xlink:href="#DejaVuSans-Bold-64" transform="translate(267.480469 0)"/>
     <use xlink:href="#DejaVuSans-Bold-69" transform="translate(339.0625 0)"/>
     <use xlink:href="#DejaVuSans-Bold-6e" transform="translate(373.339844 0)"/>
     <use xlink:href="#DejaVuSans-Bold-67" transform="translate(444.53125 0)"/>
    </g>
   </g>
   <g id="text_5">
    <!-- Multi-Head Attention -->
    <g transform="translate(505.803906 341.437969) scale(0.1 -0.1)">
     <defs>
      <path id="DejaVuSans-Bold-4d" d="M 588 4666 
L 2119 4666 
L 3181 2169 
L 4250 4666 
L 5778 4666 
L 5778 0 
L 4641 0 
L 4641 3413 
L 3566 897 
L 2803 897 
L 1728 3413 
L 1728 0 
L 588 0 
L 588 4666 
z
" transform="scale(0.015625)"/>
      <path id="DejaVuSans-Bold-2d" d="M 347 2297 
L 2309 2297 
L 2309 1388 
L 347 1388 
L 347 2297 
z
" transform="scale(0.015625)"/>
      <path id="DejaVuSans-Bold-48" d="M 588 4666 
L 1791 4666 
L 1791 2888 
L 3566 2888 
L 3566 4666 
L 4769 4666 
L 4769 0 
L 3566 0 
L 3566 1978 
L 1791 1978 
L 1791 0 
L 588 0 
L 588 4666 
z
" transform="scale(0.015625)"/>
      <path id="DejaVuSans-Bold-41" d="M 3419 850 
L 1538 850 
L 1241 0 
L 31 0 
L 1759 4666 
L 3194 4666 
L 4922 0 
L 3713 0 
L 3419 850 
z
M 1838 1716 
L 3116 1716 
L 2478 3572 
L 1838 1716 
z
" transform="scale(0.015625)"/>
     </defs>
     <use xlink:href="#DejaVuSans-Bold-4d"/>
     <use xlink:href="#DejaVuSans-Bold-75" transform="translate(99.511719 0)"/>
     <use xlink:href="#DejaVuSans-Bold-6c" transform="translate(170.703125 0)"/>
     <use xlink:href="#DejaVuSans-Bold-74" transform="translate(204.980469 0)"/>
     <use xlink:href="#DejaVuSans-Bold-69" transform="translate(252.783203 0)"/>
     <use xlink:href="#DejaVuSans-Bold-2d" transform="translate(287.060547 0)"/>
     <use xlink:href="#DejaVuSans-Bold-48" transform="translate(328.564453 0)"/>
     <use xlink:href="#DejaVuSans-Bold-65" transform="translate(412.255859 0)"/>
     <use xlink:href="#DejaVuSans-Bold-61" transform="translate(480.078125 0)"/>
     <use xlink:href="#DejaVuSans-Bold-64" transform="translate(547.558594 0)"/>
     <use xlink:href="#DejaVuSans-Bold-20" transform="translate(619.140625 0)"/>
     <use xlink:href="#DejaVuSans-Bold-41" transform="translate(653.955078 0)"/>
     <use xlink:href="#DejaVuSans-Bold-74" transform="translate(731.347656 0)"/>
     <use xlink:href="#DejaVuSans-Bold-74" transform="translate(779.150391 0)"/>
     <use xlink:href="#DejaVuSans-Bold-65" transform="translate(826.953125 0)"/>
     <use xlink:href="#DejaVuSans-Bold-6e" transform="translate(894.775391 0)"/>
     <use xlink:href="#DejaVuSans-Bold-74" transform="translate(965.966797 0)"/>
     <use xlink:href="#DejaVuSans-Bold-69" transform="translate(1013.769531 0)"/>
     <use xlink:href="#DejaVuSans-Bold-6f" transform="translate(1048.046875 0)"/>
     <use xlink:href="#DejaVuSans-Bold-6e" transform="translate(1116.748047 0)"/>
    </g>
    <!-- (8 heads, 64 dim) -->
    <g transform="translate(515.689063 352.635781) scale(0.1 -0.1)">
     <defs>
      <path id="DejaVuSans-Bold-68" d="M 4056 2131 
L 4056 0 
L 2931 0 
L 2931 347 
L 2931 1625 
Q 2931 2084 2911 2256 
Q 2891 2428 2841 2509 
Q 2775 2619 2662 2680 
Q 2550 2741 2406 2741 
Q 2056 2741 1856 2470 
Q 1656 2200 1656 1722 
L 1656 0 
L 538 0 
L 538 4863 
L 1656 4863 
L 1656 2988 
Q 1909 3294 2193 3439 
Q 2478 3584 2822 3584 
Q 3428 3584 3742 3212 
Q 4056 2841 4056 2131 
z
" transform="scale(0.015625)"/>
      <path id="DejaVuSans-Bold-2c" d="M 653 1209 
L 1778 1209 
L 1778 256 
L 1006 -909 
L 341 -909 
L 653 256 
L 653 1209 
z
" transform="scale(0.015625)"/>
      <path id="DejaVuSans-Bold-6d" d="M 3781 2919 
Q 3994 3244 4286 3414 
Q 4578 3584 4928 3584 
Q 5531 3584 5847 3212 
Q 6163 2841 6163 2131 
L 6163 0 
L 5038 0 
L 5038 1825 
Q 5041 1866 5042 1909 
Q 5044 1953 5044 2034 
Q 5044 2406 4934 2573 
Q 4825 2741 4581 2741 
Q 4263 2741 4089 2478 
Q 3916 2216 3909 1719 
L 3909 0 
L 2784 0 
L 2784 1825 
Q 2784 2406 2684 2573 
Q 2584 2741 2328 2741 
Q 2006 2741 1831 2477 
Q 1656 2213 1656 1722 
L 1656 0 
L 531 0 
L 531 3500 
L 1656 3500 
L 1656 2988 
Q 1863 3284 2130 3434 
Q 2397 3584 2719 3584 
Q 3081 3584 3359 3409 
Q 3638 3234 3781 2919 
z
" transform="scale(0.015625)"/>
     </defs>
     <use xlink:href="#DejaVuSans-Bold-28"/>
     <use xlink:href="#DejaVuSans-Bold-38" transform="translate(45.703125 0)"/>
     <use xlink:href="#DejaVuSans-Bold-20" transform="translate(115.283203 0)"/>
     <use xlink:href="#DejaVuSans-Bold-68" transform="translate(150.097656 0)"/>
     <use xlink:href="#DejaVuSans-Bold-65" transform="translate(221.289062 0)"/>
     <use xlink:href="#DejaVuSans-Bold-61" transform="translate(289.111328 0)"/>
     <use xlink:href="#DejaVuSans-Bold-64" transform="translate(356.591797 0)"/>
     <use xlink:href="#DejaVuSans-Bold-73" transform="translate(428.173828 0)"/>
     <use xlink:href="#DejaVuSans-Bold-2c" transform="translate(487.695312 0)"/>
     <use xlink:href="#DejaVuSans-Bold-20" transform="translate(525.683594 0)"/>
     <use xlink:href="#DejaVuSans-Bold-36" transform="translate(560.498047 0)"/>
     <use xlink:href="#DejaVuSans-Bold-34" transform="translate(630.078125 0)"/>
     <use xlink:href="#DejaVuSans-Bold-20" transform="translate(699.658203 0)"/>
     <use xlink:href="#DejaVuSans-Bold-64" transform="translate(734.472656 0)"/>
     <use xlink:href="#DejaVuSans-Bold-69" transform="translate(806.054688 0)"/>
     <use xlink:href="#DejaVuSans-Bold-6d" transform="translate(840.332031 0)"/>
     <use xlink:href="#DejaVuSans-Bold-29" transform="translate(944.53125 0)"/>
    </g>
   </g>
   <g id="text_6">
    <!-- Feed Forward -->
    <g transform="translate(526.727344 452.317969) scale(0.1 -0.1)">
     <defs>
      <path id="DejaVuSans-Bold-77" d="M 225 3500 
L 1313 3500 
L 1900 1088 
L 2491 3500 
L 3425 3500 
L 4013 1113 
L 4603 3500 
L 5691 3500 
L 4769 0 
L 3547 0 
L 2956 2406 
L 2369 0 
L 1147 0 
L 225 3500 
z
" transform="scale(0.015625)"/>
     </defs>
     <use xlink:href="#DejaVuSans-Bold-46"/>
     <use xlink:href="#DejaVuSans-Bold-65" transform="translate(64.310547 0)"/>
     <use xlink:href="#DejaVuSans-Bold-65" transform="translate(132.132812 0)"/>
     <use xlink:href="#DejaVuSans-Bold-64" transform="translate(199.955078 0)"/>
     <use xlink:href="#DejaVuSans-Bold-20" transform="translate(271.537109 0)"/>
     <use xlink:href="#DejaVuSans-Bold-46" transform="translate(306.351562 0)"/>
     <use xlink:href="#DejaVuSans-Bold-6f" transform="translate(370.662109 0)"/>
     <use xlink:href="#DejaVuSans-Bold-72" transform="translate(439.363281 0)"/>
     <use xlink:href="#DejaVuSans-Bold-77" transform="translate(488.679688 0)"/>
     <use xlink:href="#DejaVuSans-Bold-61" transform="translate(581.0625 0)"/>
     <use xlink:href="#DejaVuSans-Bold-72" transform="translate(648.542969 0)"/>
     <use xlink:href="#DejaVuSans-Bold-64" transform="translate(697.859375 0)"/>
    </g>
    <!-- (64 → 256 → 64) -->
    <g transform="translate(520.935156 463.515781) scale(0.1 -0.1)">
     <defs>
      <path id="DejaVuSans-Bold-35" d="M 678 4666 
L 3669 4666 
L 3669 3781 
L 1638 3781 
L 1638 3059 
Q 1775 3097 1914 3117 
Q 2053 3138 2203 3138 
Q 3056 3138 3531 2711 
Q 4006 2284 4006 1522 
Q 4006 766 3489 337 
Q 2972 -91 2053 -91 
Q 1656 -91 1267 -14 
Q 878 63 494 219 
L 494 1166 
Q 875 947 1217 837 
Q 1559 728 1863 728 
Q 2300 728 2551 942 
Q 2803 1156 2803 1522 
Q 2803 1891 2551 2103 
Q 2300 2316 1863 2316 
Q 1603 2316 1309 2248 
Q 1016 2181 678 2041 
L 678 4666 
z
" transform="scale(0.015625)"/>
     </defs>
     <use xlink:href="#DejaVuSans-Bold-28"/>
     <use xlink:href="#DejaVuSans-Bold-36" transform="translate(45.703125 0)"/>
     <use xlink:href="#DejaVuSans-Bold-34" transform="translate(115.283203 0)"/>
     <use xlink:href="#DejaVuSans-Bold-20" transform="translate(184.863281 0)"/>
     <use xlink:href="#DejaVuSans-Bold-2192" transform="translate(219.677734 0)"/>
     <use xlink:href="#DejaVuSans-Bold-20" transform="translate(303.466797 0)"/>
     <use xlink:href="#DejaVuSans-Bold-32" transform="translate(338.28125 0)"/>
     <use xlink:href="#DejaVuSans-Bold-35" transform="translate(407.861328 0)"/>
     <use xlink:href="#DejaVuSans-Bold-36" transform="translate(477.441406 0)"/>
     <use xlink:href="#DejaVuSans-Bold-20" transform="translate(547.021484 0)"/>
     <use xlink:href="#DejaVuSans-Bold-2192" transform="translate(581.835938 0)"/>
     <use xlink:href="#DejaVuSans-Bold-20" transform="translate(665.625 0)"/>
     <use xlink:href="#DejaVuSans-Bold-36" transform="translate(700.439453 0)"/>
     <use xlink:href="#DejaVuSans-Bold-34" transform="translate(770.019531 0)"/>
     <use xlink:href="#DejaVuSans-Bold-29" transform="translate(839.599609 0)"/>
    </g>
   </g>
   <g id="text_7">
    <!-- Global Average -->
    <g transform="translate(522.389844 563.119844) scale(0.1 -0.1)">
     <defs>
      <path id="DejaVuSans-Bold-62" d="M 2400 722 
Q 2759 722 2948 984 
Q 3138 1247 3138 1747 
Q 3138 2247 2948 2509 
Q 2759 2772 2400 2772 
Q 2041 2772 1848 2508 
Q 1656 2244 1656 1747 
Q 1656 1250 1848 986 
Q 2041 722 2400 722 
z
M 1656 2988 
Q 1888 3294 2169 3439 
Q 2450 3584 2816 3584 
Q 3463 3584 3878 3070 
Q 4294 2556 4294 1747 
Q 4294 938 3878 423 
Q 3463 -91 2816 -91 
Q 2450 -91 2169 54 
Q 1888 200 1656 506 
L 1656 0 
L 538 0 
L 538 4863 
L 1656 4863 
L 1656 2988 
z
" transform="scale(0.015625)"/>
     </defs>
     <use xlink:href="#DejaVuSans-Bold-47"/>
     <use xlink:href="#DejaVuSans-Bold-6c" transform="translate(82.080078 0)"/>
     <use xlink:href="#DejaVuSans-Bold-6f" transform="translate(116.357422 0)"/>
     <use xlink:href="#DejaVuSans-Bold-62" transform="translate(185.058594 0)"/>
     <use xlink:href="#DejaVuSans-Bold-61" transform="translate(256.640625 0)"/>
     <use xlink:href="#DejaVuSans-Bold-6c" transform="translate(324.121094 0)"/>
     <use xlink:href="#DejaVuSans-Bold-20" transform="translate(358.398438 0)"/>
     <use xlink:href="#DejaVuSans-Bold-41" transform="translate(393.212891 0)"/>
     <use xlink:href="#DejaVuSans-Bold-76" transform="translate(466.980469 0)"/>
     <use xlink:href="#DejaVuSans-Bold-65" transform="translate(532.166016 0)"/>
     <use xlink:href="#DejaVuSans-Bold-72" transform="translate(599.988281 0)"/>
     <use xlink:href="#DejaVuSans-Bold-61" transform="translate(649.304688 0)"/>
     <use xlink:href="#DejaVuSans-Bold-67" transform="translate(716.785156 0)"/>
     <use xlink:href="#DejaVuSans-Bold-65" transform="translate(788.367188 0)"/>
    </g>
    <!-- Pooling -->
    <g transform="translate(544.098438 574.395781) scale(0.1 -0.1)">
     <use xlink:href="#DejaVuSans-Bold-50"/>
     <use xlink:href="#DejaVuSans-Bold-6f" transform="translate(73.291016 0)"/>
     <use xlink:href="#DejaVuSans-Bold-6f" transform="translate(141.992188 0)"/>
     <use xlink:href="#DejaVuSans-Bold-6c" transform="translate(210.693359 0)"/>
     <use xlink:href="#DejaVuSans-Bold-69" transform="translate(244.970703 0)"/>
     <use xlink:href="#DejaVuSans-Bold-6e" transform="translate(279.248047 0)"/>
     <use xlink:href="#DejaVuSans-Bold-67" transform="translate(350.439453 0)"/>
    </g>
   </g>
   <g id="text_8">
    <!-- Feature Fusion -->
    <g transform="translate(718.5625 396.877969) scale(0.1 -0.1)">
     <use xlink:href="#DejaVuSans-Bold-46"/>
     <use xlink:href="#DejaVuSans-Bold-65" transform="translate(64.310547 0)"/>
     <use xlink:href="#DejaVuSans-Bold-61" transform="translate(132.132812 0)"/>
     <use xlink:href="#DejaVuSans-Bold-74" transform="translate(199.613281 0)"/>
     <use xlink:href="#DejaVuSans-Bold-75" transform="translate(247.416016 0)"/>
     <use xlink:href="#DejaVuSans-Bold-72" transform="translate(318.607422 0)"/>
     <use xlink:href="#DejaVuSans-Bold-65" transform="translate(367.923828 0)"/>
     <use xlink:href="#DejaVuSans-Bold-20" transform="translate(435.746094 0)"/>
     <use xlink:href="#DejaVuSans-Bold-46" transform="translate(470.560547 0)"/>
     <use xlink:href="#DejaVuSans-Bold-75" transform="translate(533.871094 0)"/>
     <use xlink:href="#DejaVuSans-Bold-73" transform="translate(605.0625 0)"/>
     <use xlink:href="#DejaVuSans-Bold-69" transform="translate(664.583984 0)"/>
     <use xlink:href="#DejaVuSans-Bold-6f" transform="translate(698.861328 0)"/>
     <use xlink:href="#DejaVuSans-Bold-6e" transform="translate(767.5625 0)"/>
    </g>
    <!-- (128 features) -->
    <g transform="translate(720.029688 408.075781) scale(0.1 -0.1)">
     <use xlink:href="#DejaVuSans-Bold-28"/>
     <use xlink:href="#DejaVuSans-Bold-31" transform="translate(45.703125 0)"/>
     <use xlink:href="#DejaVuSans-Bold-32" transform="translate(115.283203 0)"/>
     <use xlink:href="#DejaVuSans-Bold-38" transform="translate(184.863281 0)"/>
     <use xlink:href="#DejaVuSans-Bold-20" transform="translate(254.443359 0)"/>
     <use xlink:href="#DejaVuSans-Bold-66" transform="translate(289.257812 0)"/>
     <use xlink:href="#DejaVuSans-Bold-65" transform="translate(332.763672 0)"/>
     <use xlink:href="#DejaVuSans-Bold-61" transform="translate(400.585938 0)"/>
     <use xlink:href="#DejaVuSans-Bold-74" transform="translate(468.066406 0)"/>
     <use xlink:href="#DejaVuSans-Bold-75" transform="translate(515.869141 0)"/>
     <use xlink:href="#DejaVuSans-Bold-72" transform="translate(587.060547 0)"/>
     <use xlink:href="#DejaVuSans-Bold-65" transform="translate(636.376953 0)"/>
     <use xlink:href="#DejaVuSans-Bold-73" transform="translate(704.199219 0)"/>
     <use xlink:href="#DejaVuSans-Bold-29" transform="translate(763.720703 0)"/>
    </g>
   </g>
   <g id="text_9">
    <!-- Dense Layer -->
    <g transform="translate(725.770313 507.679844) scale(0.1 -0.1)">
     <defs>
      <path id="DejaVuSans-Bold-44" d="M 1791 3756 
L 1791 909 
L 2222 909 
Q 2959 909 3348 1275 
Q 3738 1641 3738 2338 
Q 3738 3031 3350 3393 
Q 2963 3756 2222 3756 
L 1791 3756 
z
M 588 4666 
L 1856 4666 
Q 2919 4666 3439 4514 
Q 3959 4363 4331 4000 
Q 4659 3684 4818 3271 
Q 4978 2859 4978 2338 
Q 4978 1809 4818 1395 
Q 4659 981 4331 666 
Q 3956 303 3431 151 
Q 2906 0 1856 0 
L 588 0 
L 588 4666 
z
" transform="scale(0.015625)"/>
      <path id="DejaVuSans-Bold-4c" d="M 588 4666 
L 1791 4666 
L 1791 909 
L 3903 909 
L 3903 0 
L 588 0 
L 588 4666 
z
" transform="scale(0.015625)"/>
      <path id="DejaVuSans-Bold-79" d="M 78 3500 
L 1197 3500 
L 2138 1125 
L 2938 3500 
L 4056 3500 
L 2584 -331 
Q 2363 -916 2067 -1148 
Q 1772 -1381 1288 -1381 
L 641 -1381 
L 641 -647 
L 991 -647 
Q 1275 -647 1404 -556 
Q 1534 -466 1606 -231 
L 1638 -134 
L 78 3500 
z
" transform="scale(0.015625)"/>
     </defs>
     <use xlink:href="#DejaVuSans-Bold-44"/>
     <use xlink:href="#DejaVuSans-Bold-65" transform="translate(83.007812 0)"/>
     <use xlink:href="#DejaVuSans-Bold-6e" transform="translate(150.830078 0)"/>
     <use xlink:href="#DejaVuSans-Bold-73" transform="translate(222.021484 0)"/>
     <use xlink:href="#DejaVuSans-Bold-65" transform="translate(281.542969 0)"/>
     <use xlink:href="#DejaVuSans-Bold-20" transform="translate(349.365234 0)"/>
     <use xlink:href="#DejaVuSans-Bold-4c" transform="translate(384.179688 0)"/>
     <use xlink:href="#DejaVuSans-Bold-61" transform="translate(447.900391 0)"/>
     <use xlink:href="#DejaVuSans-Bold-79" transform="translate(512.255859 0)"/>
     <use xlink:href="#DejaVuSans-Bold-65" transform="translate(577.441406 0)"/>
     <use xlink:href="#DejaVuSans-Bold-72" transform="translate(645.263672 0)"/>
    </g>
    <!-- (64 units) -->
    <g transform="translate(733.032812 518.955781) scale(0.1 -0.1)">
     <use xlink:href="#DejaVuSans-Bold-28"/>
     <use xlink:href="#DejaVuSans-Bold-36" transform="translate(45.703125 0)"/>
     <use xlink:href="#DejaVuSans-Bold-34" transform="translate(115.283203 0)"/>
     <use xlink:href="#DejaVuSans-Bold-20" transform="translate(184.863281 0)"/>
     <use xlink:href="#DejaVuSans-Bold-75" transform="translate(219.677734 0)"/>
     <use xlink:href="#DejaVuSans-Bold-6e" transform="translate(290.869141 0)"/>
     <use xlink:href="#DejaVuSans-Bold-69" transform="translate(362.060547 0)"/>
     <use xlink:href="#DejaVuSans-Bold-74" transform="translate(396.337891 0)"/>
     <use xlink:href="#DejaVuSans-Bold-73" transform="translate(444.140625 0)"/>
     <use xlink:href="#DejaVuSans-Bold-29" transform="translate(503.662109 0)"/>
    </g>
   </g>
   <g id="text_10">
    <!-- Output -->
    <g transform="translate(740.771875 618.637969) scale(0.1 -0.1)">
     <defs>
      <path id="DejaVuSans-Bold-4f" d="M 2719 3878 
Q 2169 3878 1866 3472 
Q 1563 3066 1563 2328 
Q 1563 1594 1866 1187 
Q 2169 781 2719 781 
Q 3272 781 3575 1187 
Q 3878 1594 3878 2328 
Q 3878 3066 3575 3472 
Q 3272 3878 2719 3878 
z
M 2719 4750 
Q 3844 4750 4481 4106 
Q 5119 3463 5119 2328 
Q 5119 1197 4481 553 
Q 3844 -91 2719 -91 
Q 1597 -91 958 553 
Q 319 1197 319 2328 
Q 319 3463 958 4106 
Q 1597 4750 2719 4750 
z
" transform="scale(0.015625)"/>
     </defs>
     <use xlink:href="#DejaVuSans-Bold-4f"/>
     <use xlink:href="#DejaVuSans-Bold-75" transform="translate(85.009766 0)"/>
     <use xlink:href="#DejaVuSans-Bold-74" transform="translate(156.201172 0)"/>
     <use xlink:href="#DejaVuSans-Bold-70" transform="translate(204.003906 0)"/>
     <use xlink:href="#DejaVuSans-Bold-75" transform="translate(275.585938 0)"/>
     <use xlink:href="#DejaVuSans-Bold-74" transform="translate(346.777344 0)"/>
    </g>
    <!-- (2 classes) -->
    <g transform="translate(730.339062 629.835781) scale(0.1 -0.1)">
     <use xlink:href="#DejaVuSans-Bold-28"/>
     <use xlink:href="#DejaVuSans-Bold-32" transform="translate(45.703125 0)"/>
     <use xlink:href="#DejaVuSans-Bold-20" transform="translate(115.283203 0)"/>
     <use xlink:href="#DejaVuSans-Bold-63" transform="translate(150.097656 0)"/>
     <use xlink:href="#DejaVuSans-Bold-6c" transform="translate(209.375 0)"/>
     <use xlink:href="#DejaVuSans-Bold-61" transform="translate(243.652344 0)"/>
     <use xlink:href="#DejaVuSans-Bold-73" transform="translate(311.132812 0)"/>
     <use xlink:href="#DejaVuSans-Bold-73" transform="translate(370.654297 0)"/>
     <use xlink:href="#DejaVuSans-Bold-65" transform="translate(430.175781 0)"/>
     <use xlink:href="#DejaVuSans-Bold-73" transform="translate(497.998047 0)"/>
     <use xlink:href="#DejaVuSans-Bold-29" transform="translate(557.519531 0)"/>
    </g>
   </g>
   <g id="text_11">
    <g id="patch_22">
     <path d="M 63 683.997188 
L 200.65 683.997188 
Q 205.65 683.997188 205.65 678.997188 
L 205.65 590.934375 
Q 205.65 585.934375 200.65 585.934375 
L 63 585.934375 
Q 58 585.934375 58 590.934375 
L 58 678.997188 
Q 58 683.997188 63 683.997188 
z
" style="fill: #d3d3d3; opacity: 0.8; stroke: #000000; stroke-linejoin: miter"/>
    </g>
    <!--  -->
    <g transform="translate(63 598.532813) scale(0.1 -0.1)"/>
    <!-- Performance Metrics: -->
    <g transform="translate(63 609.730625) scale(0.1 -0.1)">
     <defs>
      <path id="DejaVuSans-50" d="M 1259 4147 
L 1259 2394 
L 2053 2394 
Q 2494 2394 2734 2622 
Q 2975 2850 2975 3272 
Q 2975 3691 2734 3919 
Q 2494 4147 2053 4147 
L 1259 4147 
z
M 628 4666 
L 2053 4666 
Q 2838 4666 3239 4311 
Q 3641 3956 3641 3272 
Q 3641 2581 3239 2228 
Q 2838 1875 2053 1875 
L 1259 1875 
L 1259 0 
L 628 0 
L 628 4666 
z
" transform="scale(0.015625)"/>
      <path id="DejaVuSans-65" d="M 3597 1894 
L 3597 1613 
L 953 1613 
Q 991 1019 1311 708 
Q 1631 397 2203 397 
Q 2534 397 2845 478 
Q 3156 559 3463 722 
L 3463 178 
Q 3153 47 2828 -22 
Q 2503 -91 2169 -91 
Q 1331 -91 842 396 
Q 353 884 353 1716 
Q 353 2575 817 3079 
Q 1281 3584 2069 3584 
Q 2775 3584 3186 3129 
Q 3597 2675 3597 1894 
z
M 3022 2063 
Q 3016 2534 2758 2815 
Q 2500 3097 2075 3097 
Q 1594 3097 1305 2825 
Q 1016 2553 972 2059 
L 3022 2063 
z
" transform="scale(0.015625)"/>
      <path id="DejaVuSans-72" d="M 2631 2963 
Q 2534 3019 2420 3045 
Q 2306 3072 2169 3072 
Q 1681 3072 1420 2755 
Q 1159 2438 1159 1844 
L 1159 0 
L 581 0 
L 581 3500 
L 1159 3500 
L 1159 2956 
Q 1341 3275 1631 3429 
Q 1922 3584 2338 3584 
Q 2397 3584 2469 3576 
Q 2541 3569 2628 3553 
L 2631 2963 
z
" transform="scale(0.015625)"/>
      <path id="DejaVuSans-66" d="M 2375 4863 
L 2375 4384 
L 1825 4384 
Q 1516 4384 1395 4259 
Q 1275 4134 1275 3809 
L 1275 3500 
L 2222 3500 
L 2222 3053 
L 1275 3053 
L 1275 0 
L 697 0 
L 697 3053 
L 147 3053 
L 147 3500 
L 697 3500 
L 697 3744 
Q 697 4328 969 4595 
Q 1241 4863 1831 4863 
L 2375 4863 
z
" transform="scale(0.015625)"/>
      <path id="DejaVuSans-6f" d="M 1959 3097 
Q 1497 3097 1228 2736 
Q 959 2375 959 1747 
Q 959 1119 1226 758 
Q 1494 397 1959 397 
Q 2419 397 2687 759 
Q 2956 1122 2956 1747 
Q 2956 2369 2687 2733 
Q 2419 3097 1959 3097 
z
M 1959 3584 
Q 2709 3584 3137 3096 
Q 3566 2609 3566 1747 
Q 3566 888 3137 398 
Q 2709 -91 1959 -91 
Q 1206 -91 779 398 
Q 353 888 353 1747 
Q 353 2609 779 3096 
Q 1206 3584 1959 3584 
z
" transform="scale(0.015625)"/>
      <path id="DejaVuSans-6d" d="M 3328 2828 
Q 3544 3216 3844 3400 
Q 4144 3584 4550 3584 
Q 5097 3584 5394 3201 
Q 5691 2819 5691 2113 
L 5691 0 
L 5113 0 
L 5113 2094 
Q 5113 2597 4934 2840 
Q 4756 3084 4391 3084 
Q 3944 3084 3684 2787 
Q 3425 2491 3425 1978 
L 3425 0 
L 2847 0 
L 2847 2094 
Q 2847 2600 2669 2842 
Q 2491 3084 2119 3084 
Q 1678 3084 1418 2786 
Q 1159 2488 1159 1978 
L 1159 0 
L 581 0 
L 581 3500 
L 1159 3500 
L 1159 2956 
Q 1356 3278 1631 3431 
Q 1906 3584 2284 3584 
Q 2666 3584 2933 3390 
Q 3200 3197 3328 2828 
z
" transform="scale(0.015625)"/>
      <path id="DejaVuSans-61" d="M 2194 1759 
Q 1497 1759 1228 1600 
Q 959 1441 959 1056 
Q 959 750 1161 570 
Q 1363 391 1709 391 
Q 2188 391 2477 730 
Q 2766 1069 2766 1631 
L 2766 1759 
L 2194 1759 
z
M 3341 1997 
L 3341 0 
L 2766 0 
L 2766 531 
Q 2569 213 2275 61 
Q 1981 -91 1556 -91 
Q 1019 -91 701 211 
Q 384 513 384 1019 
Q 384 1609 779 1909 
Q 1175 2209 1959 2209 
L 2766 2209 
L 2766 2266 
Q 2766 2663 2505 2880 
Q 2244 3097 1772 3097 
Q 1472 3097 1187 3025 
Q 903 2953 641 2809 
L 641 3341 
Q 956 3463 1253 3523 
Q 1550 3584 1831 3584 
Q 2591 3584 2966 3190 
Q 3341 2797 3341 1997 
z
" transform="scale(0.015625)"/>
      <path id="DejaVuSans-6e" d="M 3513 2113 
L 3513 0 
L 2938 0 
L 2938 2094 
Q 2938 2591 2744 2837 
Q 2550 3084 2163 3084 
Q 1697 3084 1428 2787 
Q 1159 2491 1159 1978 
L 1159 0 
L 581 0 
L 581 3500 
L 1159 3500 
L 1159 2956 
Q 1366 3272 1645 3428 
Q 1925 3584 2291 3584 
Q 2894 3584 3203 3211 
Q 3513 2838 3513 2113 
z
" transform="scale(0.015625)"/>
      <path id="DejaVuSans-63" d="M 3122 3366 
L 3122 2828 
Q 2878 2963 2633 3030 
Q 2388 3097 2138 3097 
Q 1578 3097 1268 2742 
Q 959 2388 959 1747 
Q 959 1106 1268 751 
Q 1578 397 2138 397 
Q 2388 397 2633 464 
Q 2878 531 3122 666 
L 3122 134 
Q 2881 22 2623 -34 
Q 2366 -91 2075 -91 
Q 1284 -91 818 406 
Q 353 903 353 1747 
Q 353 2603 823 3093 
Q 1294 3584 2113 3584 
Q 2378 3584 2631 3529 
Q 2884 3475 3122 3366 
z
" transform="scale(0.015625)"/>
      <path id="DejaVuSans-20" transform="scale(0.015625)"/>
      <path id="DejaVuSans-4d" d="M 628 4666 
L 1569 4666 
L 2759 1491 
L 3956 4666 
L 4897 4666 
L 4897 0 
L 4281 0 
L 4281 4097 
L 3078 897 
L 2444 897 
L 1241 4097 
L 1241 0 
L 628 0 
L 628 4666 
z
" transform="scale(0.015625)"/>
      <path id="DejaVuSans-74" d="M 1172 4494 
L 1172 3500 
L 2356 3500 
L 2356 3053 
L 1172 3053 
L 1172 1153 
Q 1172 725 1289 603 
Q 1406 481 1766 481 
L 2356 481 
L 2356 0 
L 1766 0 
Q 1100 0 847 248 
Q 594 497 594 1153 
L 594 3053 
L 172 3053 
L 172 3500 
L 594 3500 
L 594 4494 
L 1172 4494 
z
" transform="scale(0.015625)"/>
      <path id="DejaVuSans-69" d="M 603 3500 
L 1178 3500 
L 1178 0 
L 603 0 
L 603 3500 
z
M 603 4863 
L 1178 4863 
L 1178 4134 
L 603 4134 
L 603 4863 
z
" transform="scale(0.015625)"/>
      <path id="DejaVuSans-73" d="M 2834 3397 
L 2834 2853 
Q 2591 2978 2328 3040 
Q 2066 3103 1784 3103 
Q 1356 3103 1142 2972 
Q 928 2841 928 2578 
Q 928 2378 1081 2264 
Q 1234 2150 1697 2047 
L 1894 2003 
Q 2506 1872 2764 1633 
Q 3022 1394 3022 966 
Q 3022 478 2636 193 
Q 2250 -91 1575 -91 
Q 1294 -91 989 -36 
Q 684 19 347 128 
L 347 722 
Q 666 556 975 473 
Q 1284 391 1588 391 
Q 1994 391 2212 530 
Q 2431 669 2431 922 
Q 2431 1156 2273 1281 
Q 2116 1406 1581 1522 
L 1381 1569 
Q 847 1681 609 1914 
Q 372 2147 372 2553 
Q 372 3047 722 3315 
Q 1072 3584 1716 3584 
Q 2034 3584 2315 3537 
Q 2597 3491 2834 3397 
z
" transform="scale(0.015625)"/>
      <path id="DejaVuSans-3a" d="M 750 794 
L 1409 794 
L 1409 0 
L 750 0 
L 750 794 
z
M 750 3309 
L 1409 3309 
L 1409 2516 
L 750 2516 
L 750 3309 
z
" transform="scale(0.015625)"/>
     </defs>
     <use xlink:href="#DejaVuSans-50"/>
     <use xlink:href="#DejaVuSans-65" transform="translate(56.677734 0)"/>
     <use xlink:href="#DejaVuSans-72" transform="translate(118.201172 0)"/>
     <use xlink:href="#DejaVuSans-66" transform="translate(159.314453 0)"/>
     <use xlink:href="#DejaVuSans-6f" transform="translate(194.519531 0)"/>
     <use xlink:href="#DejaVuSans-72" transform="translate(255.701172 0)"/>
     <use xlink:href="#DejaVuSans-6d" transform="translate(295.064453 0)"/>
     <use xlink:href="#DejaVuSans-61" transform="translate(392.476562 0)"/>
     <use xlink:href="#DejaVuSans-6e" transform="translate(453.755859 0)"/>
     <use xlink:href="#DejaVuSans-63" transform="translate(517.134766 0)"/>
     <use xlink:href="#DejaVuSans-65" transform="translate(572.115234 0)"/>
     <use xlink:href="#DejaVuSans-20" transform="translate(633.638672 0)"/>
     <use xlink:href="#DejaVuSans-4d" transform="translate(665.425781 0)"/>
     <use xlink:href="#DejaVuSans-65" transform="translate(751.705078 0)"/>
     <use xlink:href="#DejaVuSans-74" transform="translate(813.228516 0)"/>
     <use xlink:href="#DejaVuSans-72" transform="translate(852.4375 0)"/>
     <use xlink:href="#DejaVuSans-69" transform="translate(893.550781 0)"/>
     <use xlink:href="#DejaVuSans-63" transform="translate(921.333984 0)"/>
     <use xlink:href="#DejaVuSans-73" transform="translate(976.314453 0)"/>
     <use xlink:href="#DejaVuSans-3a" transform="translate(1028.414062 0)"/>
    </g>
    <!-- • Test Accuracy: 68.50% -->
    <g transform="translate(63 620.928438) scale(0.1 -0.1)">
     <defs>
      <path id="DejaVuSans-2022" d="M 959 2381 
Q 959 2769 1229 3036 
Q 1500 3303 1894 3303 
Q 2281 3303 2548 3036 
Q 2816 2769 2816 2381 
Q 2816 1991 2547 1722 
Q 2278 1453 1888 1453 
Q 1497 1453 1228 1722 
Q 959 1991 959 2381 
z
" transform="scale(0.015625)"/>
      <path id="DejaVuSans-54" d="M -19 4666 
L 3928 4666 
L 3928 4134 
L 2272 4134 
L 2272 0 
L 1638 0 
L 1638 4134 
L -19 4134 
L -19 4666 
z
" transform="scale(0.015625)"/>
      <path id="DejaVuSans-41" d="M 2188 4044 
L 1331 1722 
L 3047 1722 
L 2188 4044 
z
M 1831 4666 
L 2547 4666 
L 4325 0 
L 3669 0 
L 3244 1197 
L 1141 1197 
L 716 0 
L 50 0 
L 1831 4666 
z
" transform="scale(0.015625)"/>
      <path id="DejaVuSans-75" d="M 544 1381 
L 544 3500 
L 1119 3500 
L 1119 1403 
Q 1119 906 1312 657 
Q 1506 409 1894 409 
Q 2359 409 2629 706 
Q 2900 1003 2900 1516 
L 2900 3500 
L 3475 3500 
L 3475 0 
L 2900 0 
L 2900 538 
Q 2691 219 2414 64 
Q 2138 -91 1772 -91 
Q 1169 -91 856 284 
Q 544 659 544 1381 
z
M 1991 3584 
L 1991 3584 
z
" transform="scale(0.015625)"/>
      <path id="DejaVuSans-79" d="M 2059 -325 
Q 1816 -950 1584 -1140 
Q 1353 -1331 966 -1331 
L 506 -1331 
L 506 -850 
L 844 -850 
Q 1081 -850 1212 -737 
Q 1344 -625 1503 -206 
L 1606 56 
L 191 3500 
L 800 3500 
L 1894 763 
L 2988 3500 
L 3597 3500 
L 2059 -325 
z
" transform="scale(0.015625)"/>
      <path id="DejaVuSans-36" d="M 2113 2584 
Q 1688 2584 1439 2293 
Q 1191 2003 1191 1497 
Q 1191 994 1439 701 
Q 1688 409 2113 409 
Q 2538 409 2786 701 
Q 3034 994 3034 1497 
Q 3034 2003 2786 2293 
Q 2538 2584 2113 2584 
z
M 3366 4563 
L 3366 3988 
Q 3128 4100 2886 4159 
Q 2644 4219 2406 4219 
Q 1781 4219 1451 3797 
Q 1122 3375 1075 2522 
Q 1259 2794 1537 2939 
Q 1816 3084 2150 3084 
Q 2853 3084 3261 2657 
Q 3669 2231 3669 1497 
Q 3669 778 3244 343 
Q 2819 -91 2113 -91 
Q 1303 -91 875 529 
Q 447 1150 447 2328 
Q 447 3434 972 4092 
Q 1497 4750 2381 4750 
Q 2619 4750 2861 4703 
Q 3103 4656 3366 4563 
z
" transform="scale(0.015625)"/>
      <path id="DejaVuSans-38" d="M 2034 2216 
Q 1584 2216 1326 1975 
Q 1069 1734 1069 1313 
Q 1069 891 1326 650 
Q 1584 409 2034 409 
Q 2484 409 2743 651 
Q 3003 894 3003 1313 
Q 3003 1734 2745 1975 
Q 2488 2216 2034 2216 
z
M 1403 2484 
Q 997 2584 770 2862 
Q 544 3141 544 3541 
Q 544 4100 942 4425 
Q 1341 4750 2034 4750 
Q 2731 4750 3128 4425 
Q 3525 4100 3525 3541 
Q 3525 3141 3298 2862 
Q 3072 2584 2669 2484 
Q 3125 2378 3379 2068 
Q 3634 1759 3634 1313 
Q 3634 634 3220 271 
Q 2806 -91 2034 -91 
Q 1263 -91 848 271 
Q 434 634 434 1313 
Q 434 1759 690 2068 
Q 947 2378 1403 2484 
z
M 1172 3481 
Q 1172 3119 1398 2916 
Q 1625 2713 2034 2713 
Q 2441 2713 2670 2916 
Q 2900 3119 2900 3481 
Q 2900 3844 2670 4047 
Q 2441 4250 2034 4250 
Q 1625 4250 1398 4047 
Q 1172 3844 1172 3481 
z
" transform="scale(0.015625)"/>
      <path id="DejaVuSans-2e" d="M 684 794 
L 1344 794 
L 1344 0 
L 684 0 
L 684 794 
z
" transform="scale(0.015625)"/>
      <path id="DejaVuSans-35" d="M 691 4666 
L 3169 4666 
L 3169 4134 
L 1269 4134 
L 1269 2991 
Q 1406 3038 1543 3061 
Q 1681 3084 1819 3084 
Q 2600 3084 3056 2656 
Q 3513 2228 3513 1497 
Q 3513 744 3044 326 
Q 2575 -91 1722 -91 
Q 1428 -91 1123 -41 
Q 819 9 494 109 
L 494 744 
Q 775 591 1075 516 
Q 1375 441 1709 441 
Q 2250 441 2565 725 
Q 2881 1009 2881 1497 
Q 2881 1984 2565 2268 
Q 2250 2553 1709 2553 
Q 1456 2553 1204 2497 
Q 953 2441 691 2322 
L 691 4666 
z
" transform="scale(0.015625)"/>
      <path id="DejaVuSans-30" d="M 2034 4250 
Q 1547 4250 1301 3770 
Q 1056 3291 1056 2328 
Q 1056 1369 1301 889 
Q 1547 409 2034 409 
Q 2525 409 2770 889 
Q 3016 1369 3016 2328 
Q 3016 3291 2770 3770 
Q 2525 4250 2034 4250 
z
M 2034 4750 
Q 2819 4750 3233 4129 
Q 3647 3509 3647 2328 
Q 3647 1150 3233 529 
Q 2819 -91 2034 -91 
Q 1250 -91 836 529 
Q 422 1150 422 2328 
Q 422 3509 836 4129 
Q 1250 4750 2034 4750 
z
" transform="scale(0.015625)"/>
      <path id="DejaVuSans-25" d="M 4653 2053 
Q 4381 2053 4226 1822 
Q 4072 1591 4072 1178 
Q 4072 772 4226 539 
Q 4381 306 4653 306 
Q 4919 306 5073 539 
Q 5228 772 5228 1178 
Q 5228 1588 5073 1820 
Q 4919 2053 4653 2053 
z
M 4653 2450 
Q 5147 2450 5437 2106 
Q 5728 1763 5728 1178 
Q 5728 594 5436 251 
Q 5144 -91 4653 -91 
Q 4153 -91 3862 251 
Q 3572 594 3572 1178 
Q 3572 1766 3864 2108 
Q 4156 2450 4653 2450 
z
M 1428 4353 
Q 1159 4353 1004 4120 
Q 850 3888 850 3481 
Q 850 3069 1003 2837 
Q 1156 2606 1428 2606 
Q 1700 2606 1854 2837 
Q 2009 3069 2009 3481 
Q 2009 3884 1853 4118 
Q 1697 4353 1428 4353 
z
M 4250 4750 
L 4750 4750 
L 1831 -91 
L 1331 -91 
L 4250 4750 
z
M 1428 4750 
Q 1922 4750 2215 4408 
Q 2509 4066 2509 3481 
Q 2509 2891 2217 2550 
Q 1925 2209 1428 2209 
Q 931 2209 642 2551 
Q 353 2894 353 3481 
Q 353 4063 643 4406 
Q 934 4750 1428 4750 
z
" transform="scale(0.015625)"/>
     </defs>
     <use xlink:href="#DejaVuSans-2022"/>
     <use xlink:href="#DejaVuSans-20" transform="translate(58.984375 0)"/>
     <use xlink:href="#DejaVuSans-54" transform="translate(90.771484 0)"/>
     <use xlink:href="#DejaVuSans-65" transform="translate(134.855469 0)"/>
     <use xlink:href="#DejaVuSans-73" transform="translate(196.378906 0)"/>
     <use xlink:href="#DejaVuSans-74" transform="translate(248.478516 0)"/>
     <use xlink:href="#DejaVuSans-20" transform="translate(287.6875 0)"/>
     <use xlink:href="#DejaVuSans-41" transform="translate(319.474609 0)"/>
     <use xlink:href="#DejaVuSans-63" transform="translate(386.132812 0)"/>
     <use xlink:href="#DejaVuSans-63" transform="translate(441.113281 0)"/>
     <use xlink:href="#DejaVuSans-75" transform="translate(496.09375 0)"/>
     <use xlink:href="#DejaVuSans-72" transform="translate(559.472656 0)"/>
     <use xlink:href="#DejaVuSans-61" transform="translate(600.585938 0)"/>
     <use xlink:href="#DejaVuSans-63" transform="translate(661.865234 0)"/>
     <use xlink:href="#DejaVuSans-79" transform="translate(716.845703 0)"/>
     <use xlink:href="#DejaVuSans-3a" transform="translate(768.775391 0)"/>
     <use xlink:href="#DejaVuSans-20" transform="translate(802.466797 0)"/>
     <use xlink:href="#DejaVuSans-36" transform="translate(834.253906 0)"/>
     <use xlink:href="#DejaVuSans-38" transform="translate(897.876953 0)"/>
     <use xlink:href="#DejaVuSans-2e" transform="translate(961.5 0)"/>
     <use xlink:href="#DejaVuSans-35" transform="translate(993.287109 0)"/>
     <use xlink:href="#DejaVuSans-30" transform="translate(1056.910156 0)"/>
     <use xlink:href="#DejaVuSans-25" transform="translate(1120.533203 0)"/>
    </g>
    <!-- • Balanced Performance -->
    <g transform="translate(63 632.12625) scale(0.1 -0.1)">
     <defs>
      <path id="DejaVuSans-42" d="M 1259 2228 
L 1259 519 
L 2272 519 
Q 2781 519 3026 730 
Q 3272 941 3272 1375 
Q 3272 1813 3026 2020 
Q 2781 2228 2272 2228 
L 1259 2228 
z
M 1259 4147 
L 1259 2741 
L 2194 2741 
Q 2656 2741 2882 2914 
Q 3109 3088 3109 3444 
Q 3109 3797 2882 3972 
Q 2656 4147 2194 4147 
L 1259 4147 
z
M 628 4666 
L 2241 4666 
Q 2963 4666 3353 4366 
Q 3744 4066 3744 3513 
Q 3744 3084 3544 2831 
Q 3344 2578 2956 2516 
Q 3422 2416 3680 2098 
Q 3938 1781 3938 1306 
Q 3938 681 3513 340 
Q 3088 0 2303 0 
L 628 0 
L 628 4666 
z
" transform="scale(0.015625)"/>
      <path id="DejaVuSans-6c" d="M 603 4863 
L 1178 4863 
L 1178 0 
L 603 0 
L 603 4863 
z
" transform="scale(0.015625)"/>
      <path id="DejaVuSans-64" d="M 2906 2969 
L 2906 4863 
L 3481 4863 
L 3481 0 
L 2906 0 
L 2906 525 
Q 2725 213 2448 61 
Q 2172 -91 1784 -91 
Q 1150 -91 751 415 
Q 353 922 353 1747 
Q 353 2572 751 3078 
Q 1150 3584 1784 3584 
Q 2172 3584 2448 3432 
Q 2725 3281 2906 2969 
z
M 947 1747 
Q 947 1113 1208 752 
Q 1469 391 1925 391 
Q 2381 391 2643 752 
Q 2906 1113 2906 1747 
Q 2906 2381 2643 2742 
Q 2381 3103 1925 3103 
Q 1469 3103 1208 2742 
Q 947 2381 947 1747 
z
" transform="scale(0.015625)"/>
     </defs>
     <use xlink:href="#DejaVuSans-2022"/>
     <use xlink:href="#DejaVuSans-20" transform="translate(58.984375 0)"/>
     <use xlink:href="#DejaVuSans-42" transform="translate(90.771484 0)"/>
     <use xlink:href="#DejaVuSans-61" transform="translate(159.375 0)"/>
     <use xlink:href="#DejaVuSans-6c" transform="translate(220.654297 0)"/>
     <use xlink:href="#DejaVuSans-61" transform="translate(248.4375 0)"/>
     <use xlink:href="#DejaVuSans-6e" transform="translate(309.716797 0)"/>
     <use xlink:href="#DejaVuSans-63" transform="translate(373.095703 0)"/>
     <use xlink:href="#DejaVuSans-65" transform="translate(428.076172 0)"/>
     <use xlink:href="#DejaVuSans-64" transform="translate(489.599609 0)"/>
     <use xlink:href="#DejaVuSans-20" transform="translate(553.076172 0)"/>
     <use xlink:href="#DejaVuSans-50" transform="translate(584.863281 0)"/>
     <use xlink:href="#DejaVuSans-65" transform="translate(641.541016 0)"/>
     <use xlink:href="#DejaVuSans-72" transform="translate(703.064453 0)"/>
     <use xlink:href="#DejaVuSans-66" transform="translate(744.177734 0)"/>
     <use xlink:href="#DejaVuSans-6f" transform="translate(779.382812 0)"/>
     <use xlink:href="#DejaVuSans-72" transform="translate(840.564453 0)"/>
     <use xlink:href="#DejaVuSans-6d" transform="translate(879.927734 0)"/>
     <use xlink:href="#DejaVuSans-61" transform="translate(977.339844 0)"/>
     <use xlink:href="#DejaVuSans-6e" transform="translate(1038.619141 0)"/>
     <use xlink:href="#DejaVuSans-63" transform="translate(1101.998047 0)"/>
     <use xlink:href="#DejaVuSans-65" transform="translate(1156.978516 0)"/>
    </g>
    <!-- • Self-attention mechanism -->
    <g transform="translate(63 643.324063) scale(0.1 -0.1)">
     <defs>
      <path id="DejaVuSans-53" d="M 3425 4513 
L 3425 3897 
Q 3066 4069 2747 4153 
Q 2428 4238 2131 4238 
Q 1616 4238 1336 4038 
Q 1056 3838 1056 3469 
Q 1056 3159 1242 3001 
Q 1428 2844 1947 2747 
L 2328 2669 
Q 3034 2534 3370 2195 
Q 3706 1856 3706 1288 
Q 3706 609 3251 259 
Q 2797 -91 1919 -91 
Q 1588 -91 1214 -16 
Q 841 59 441 206 
L 441 856 
Q 825 641 1194 531 
Q 1563 422 1919 422 
Q 2459 422 2753 634 
Q 3047 847 3047 1241 
Q 3047 1584 2836 1778 
Q 2625 1972 2144 2069 
L 1759 2144 
Q 1053 2284 737 2584 
Q 422 2884 422 3419 
Q 422 4038 858 4394 
Q 1294 4750 2059 4750 
Q 2388 4750 2728 4690 
Q 3069 4631 3425 4513 
z
" transform="scale(0.015625)"/>
      <path id="DejaVuSans-2d" d="M 313 2009 
L 1997 2009 
L 1997 1497 
L 313 1497 
L 313 2009 
z
" transform="scale(0.015625)"/>
      <path id="DejaVuSans-68" d="M 3513 2113 
L 3513 0 
L 2938 0 
L 2938 2094 
Q 2938 2591 2744 2837 
Q 2550 3084 2163 3084 
Q 1697 3084 1428 2787 
Q 1159 2491 1159 1978 
L 1159 0 
L 581 0 
L 581 4863 
L 1159 4863 
L 1159 2956 
Q 1366 3272 1645 3428 
Q 1925 3584 2291 3584 
Q 2894 3584 3203 3211 
Q 3513 2838 3513 2113 
z
" transform="scale(0.015625)"/>
     </defs>
     <use xlink:href="#DejaVuSans-2022"/>
     <use xlink:href="#DejaVuSans-20" transform="translate(58.984375 0)"/>
     <use xlink:href="#DejaVuSans-53" transform="translate(90.771484 0)"/>
     <use xlink:href="#DejaVuSans-65" transform="translate(154.248047 0)"/>
     <use xlink:href="#DejaVuSans-6c" transform="translate(215.771484 0)"/>
     <use xlink:href="#DejaVuSans-66" transform="translate(243.554688 0)"/>
     <use xlink:href="#DejaVuSans-2d" transform="translate(273.259766 0)"/>
     <use xlink:href="#DejaVuSans-61" transform="translate(309.34375 0)"/>
     <use xlink:href="#DejaVuSans-74" transform="translate(370.623047 0)"/>
     <use xlink:href="#DejaVuSans-74" transform="translate(409.832031 0)"/>
     <use xlink:href="#DejaVuSans-65" transform="translate(449.041016 0)"/>
     <use xlink:href="#DejaVuSans-6e" transform="translate(510.564453 0)"/>
     <use xlink:href="#DejaVuSans-74" transform="translate(573.943359 0)"/>
     <use xlink:href="#DejaVuSans-69" transform="translate(613.152344 0)"/>
     <use xlink:href="#DejaVuSans-6f" transform="translate(640.935547 0)"/>
     <use xlink:href="#DejaVuSans-6e" transform="translate(702.117188 0)"/>
     <use xlink:href="#DejaVuSans-20" transform="translate(765.496094 0)"/>
     <use xlink:href="#DejaVuSans-6d" transform="translate(797.283203 0)"/>
     <use xlink:href="#DejaVuSans-65" transform="translate(894.695312 0)"/>
     <use xlink:href="#DejaVuSans-63" transform="translate(956.21875 0)"/>
     <use xlink:href="#DejaVuSans-68" transform="translate(1011.199219 0)"/>
     <use xlink:href="#DejaVuSans-61" transform="translate(1074.578125 0)"/>
     <use xlink:href="#DejaVuSans-6e" transform="translate(1135.857422 0)"/>
     <use xlink:href="#DejaVuSans-69" transform="translate(1199.236328 0)"/>
     <use xlink:href="#DejaVuSans-73" transform="translate(1227.019531 0)"/>
     <use xlink:href="#DejaVuSans-6d" transform="translate(1279.119141 0)"/>
    </g>
    <!-- • Early stopping: Epoch 21 -->
    <g transform="translate(63 654.521875) scale(0.1 -0.1)">
     <defs>
      <path id="DejaVuSans-45" d="M 628 4666 
L 3578 4666 
L 3578 4134 
L 1259 4134 
L 1259 2753 
L 3481 2753 
L 3481 2222 
L 1259 2222 
L 1259 531 
L 3634 531 
L 3634 0 
L 628 0 
L 628 4666 
z
" transform="scale(0.015625)"/>
      <path id="DejaVuSans-70" d="M 1159 525 
L 1159 -1331 
L 581 -1331 
L 581 3500 
L 1159 3500 
L 1159 2969 
Q 1341 3281 1617 3432 
Q 1894 3584 2278 3584 
Q 2916 3584 3314 3078 
Q 3713 2572 3713 1747 
Q 3713 922 3314 415 
Q 2916 -91 2278 -91 
Q 1894 -91 1617 61 
Q 1341 213 1159 525 
z
M 3116 1747 
Q 3116 2381 2855 2742 
Q 2594 3103 2138 3103 
Q 1681 3103 1420 2742 
Q 1159 2381 1159 1747 
Q 1159 1113 1420 752 
Q 1681 391 2138 391 
Q 2594 391 2855 752 
Q 3116 1113 3116 1747 
z
" transform="scale(0.015625)"/>
      <path id="DejaVuSans-67" d="M 2906 1791 
Q 2906 2416 2648 2759 
Q 2391 3103 1925 3103 
Q 1463 3103 1205 2759 
Q 947 2416 947 1791 
Q 947 1169 1205 825 
Q 1463 481 1925 481 
Q 2391 481 2648 825 
Q 2906 1169 2906 1791 
z
M 3481 434 
Q 3481 -459 3084 -895 
Q 2688 -1331 1869 -1331 
Q 1566 -1331 1297 -1286 
Q 1028 -1241 775 -1147 
L 775 -588 
Q 1028 -725 1275 -790 
Q 1522 -856 1778 -856 
Q 2344 -856 2625 -561 
Q 2906 -266 2906 331 
L 2906 616 
Q 2728 306 2450 153 
Q 2172 0 1784 0 
Q 1141 0 747 490 
Q 353 981 353 1791 
Q 353 2603 747 3093 
Q 1141 3584 1784 3584 
Q 2172 3584 2450 3431 
Q 2728 3278 2906 2969 
L 2906 3500 
L 3481 3500 
L 3481 434 
z
" transform="scale(0.015625)"/>
      <path id="DejaVuSans-32" d="M 1228 531 
L 3431 531 
L 3431 0 
L 469 0 
L 469 531 
Q 828 903 1448 1529 
Q 2069 2156 2228 2338 
Q 2531 2678 2651 2914 
Q 2772 3150 2772 3378 
Q 2772 3750 2511 3984 
Q 2250 4219 1831 4219 
Q 1534 4219 1204 4116 
Q 875 4013 500 3803 
L 500 4441 
Q 881 4594 1212 4672 
Q 1544 4750 1819 4750 
Q 2544 4750 2975 4387 
Q 3406 4025 3406 3419 
Q 3406 3131 3298 2873 
Q 3191 2616 2906 2266 
Q 2828 2175 2409 1742 
Q 1991 1309 1228 531 
z
" transform="scale(0.015625)"/>
      <path id="DejaVuSans-31" d="M 794 531 
L 1825 531 
L 1825 4091 
L 703 3866 
L 703 4441 
L 1819 4666 
L 2450 4666 
L 2450 531 
L 3481 531 
L 3481 0 
L 794 0 
L 794 531 
z
" transform="scale(0.015625)"/>
     </defs>
     <use xlink:href="#DejaVuSans-2022"/>
     <use xlink:href="#DejaVuSans-20" transform="translate(58.984375 0)"/>
     <use xlink:href="#DejaVuSans-45" transform="translate(90.771484 0)"/>
     <use xlink:href="#DejaVuSans-61" transform="translate(153.955078 0)"/>
     <use xlink:href="#DejaVuSans-72" transform="translate(215.234375 0)"/>
     <use xlink:href="#DejaVuSans-6c" transform="translate(256.347656 0)"/>
     <use xlink:href="#DejaVuSans-79" transform="translate(284.130859 0)"/>
     <use xlink:href="#DejaVuSans-20" transform="translate(343.310547 0)"/>
     <use xlink:href="#DejaVuSans-73" transform="translate(375.097656 0)"/>
     <use xlink:href="#DejaVuSans-74" transform="translate(427.197266 0)"/>
     <use xlink:href="#DejaVuSans-6f" transform="translate(466.40625 0)"/>
     <use xlink:href="#DejaVuSans-70" transform="translate(527.587891 0)"/>
     <use xlink:href="#DejaVuSans-70" transform="translate(591.064453 0)"/>
     <use xlink:href="#DejaVuSans-69" transform="translate(654.541016 0)"/>
     <use xlink:href="#DejaVuSans-6e" transform="translate(682.324219 0)"/>
     <use xlink:href="#DejaVuSans-67" transform="translate(745.703125 0)"/>
     <use xlink:href="#DejaVuSans-3a" transform="translate(809.179688 0)"/>
     <use xlink:href="#DejaVuSans-20" transform="translate(842.871094 0)"/>
     <use xlink:href="#DejaVuSans-45" transform="translate(874.658203 0)"/>
     <use xlink:href="#DejaVuSans-70" transform="translate(937.841797 0)"/>
     <use xlink:href="#DejaVuSans-6f" transform="translate(1001.318359 0)"/>
     <use xlink:href="#DejaVuSans-63" transform="translate(1062.5 0)"/>
     <use xlink:href="#DejaVuSans-68" transform="translate(1117.480469 0)"/>
     <use xlink:href="#DejaVuSans-20" transform="translate(1180.859375 0)"/>
     <use xlink:href="#DejaVuSans-32" transform="translate(1212.646484 0)"/>
     <use xlink:href="#DejaVuSans-31" transform="translate(1276.269531 0)"/>
    </g>
    <!-- • Parameters: ~75K -->
    <g transform="translate(63 665.719688) scale(0.1 -0.1)">
     <defs>
      <path id="DejaVuSans-7e" d="M 4684 2553 
L 4684 1997 
Q 4356 1750 4076 1644 
Q 3797 1538 3494 1538 
Q 3150 1538 2694 1722 
Q 2659 1734 2644 1741 
Q 2622 1750 2575 1766 
Q 2091 1959 1797 1959 
Q 1522 1959 1253 1839 
Q 984 1719 678 1459 
L 678 2016 
Q 1006 2263 1286 2370 
Q 1566 2478 1869 2478 
Q 2213 2478 2672 2291 
Q 2703 2278 2719 2272 
Q 2744 2263 2788 2247 
Q 3272 2053 3566 2053 
Q 3834 2053 4098 2172 
Q 4363 2291 4684 2553 
z
" transform="scale(0.015625)"/>
      <path id="DejaVuSans-37" d="M 525 4666 
L 3525 4666 
L 3525 4397 
L 1831 0 
L 1172 0 
L 2766 4134 
L 525 4134 
L 525 4666 
z
" transform="scale(0.015625)"/>
      <path id="DejaVuSans-4b" d="M 628 4666 
L 1259 4666 
L 1259 2694 
L 3353 4666 
L 4166 4666 
L 1850 2491 
L 4331 0 
L 3500 0 
L 1259 2247 
L 1259 0 
L 628 0 
L 628 4666 
z
" transform="scale(0.015625)"/>
     </defs>
     <use xlink:href="#DejaVuSans-2022"/>
     <use xlink:href="#DejaVuSans-20" transform="translate(58.984375 0)"/>
     <use xlink:href="#DejaVuSans-50" transform="translate(90.771484 0)"/>
     <use xlink:href="#DejaVuSans-61" transform="translate(146.574219 0)"/>
     <use xlink:href="#DejaVuSans-72" transform="translate(207.853516 0)"/>
     <use xlink:href="#DejaVuSans-61" transform="translate(248.966797 0)"/>
     <use xlink:href="#DejaVuSans-6d" transform="translate(310.246094 0)"/>
     <use xlink:href="#DejaVuSans-65" transform="translate(407.658203 0)"/>
     <use xlink:href="#DejaVuSans-74" transform="translate(469.181641 0)"/>
     <use xlink:href="#DejaVuSans-65" transform="translate(508.390625 0)"/>
     <use xlink:href="#DejaVuSans-72" transform="translate(569.914062 0)"/>
     <use xlink:href="#DejaVuSans-73" transform="translate(611.027344 0)"/>
     <use xlink:href="#DejaVuSans-3a" transform="translate(663.126953 0)"/>
     <use xlink:href="#DejaVuSans-20" transform="translate(696.818359 0)"/>
     <use xlink:href="#DejaVuSans-7e" transform="translate(728.605469 0)"/>
     <use xlink:href="#DejaVuSans-37" transform="translate(812.394531 0)"/>
     <use xlink:href="#DejaVuSans-35" transform="translate(876.017578 0)"/>
     <use xlink:href="#DejaVuSans-4b" transform="translate(939.640625 0)"/>
    </g>
    <!--      -->
    <g transform="translate(63 676.9175) scale(0.1 -0.1)">
     <use xlink:href="#DejaVuSans-20"/>
     <use xlink:href="#DejaVuSans-20" transform="translate(31.787109 0)"/>
     <use xlink:href="#DejaVuSans-20" transform="translate(63.574219 0)"/>
     <use xlink:href="#DejaVuSans-20" transform="translate(95.361328 0)"/>
    </g>
   </g>
   <g id="text_12">
    <!-- Transformer + Wavelet Architecture (68.5% Accuracy) -->
    <g transform="translate(209.46125 19.3575) scale(0.16 -0.16)">
     <defs>
      <path id="DejaVuSans-Bold-54" d="M 31 4666 
L 4331 4666 
L 4331 3756 
L 2784 3756 
L 2784 0 
L 1581 0 
L 1581 3756 
L 31 3756 
L 31 4666 
z
" transform="scale(0.015625)"/>
      <path id="DejaVuSans-Bold-2b" d="M 3053 4013 
L 3053 2375 
L 4684 2375 
L 4684 1638 
L 3053 1638 
L 3053 0 
L 2309 0 
L 2309 1638 
L 678 1638 
L 678 2375 
L 2309 2375 
L 2309 4013 
L 3053 4013 
z
" transform="scale(0.015625)"/>
      <path id="DejaVuSans-Bold-2e" d="M 653 1209 
L 1778 1209 
L 1778 0 
L 653 0 
L 653 1209 
z
" transform="scale(0.015625)"/>
      <path id="DejaVuSans-Bold-25" d="M 4959 1925 
Q 4738 1925 4616 1733 
Q 4494 1541 4494 1184 
Q 4494 825 4614 633 
Q 4734 441 4959 441 
Q 5184 441 5303 633 
Q 5422 825 5422 1184 
Q 5422 1541 5301 1733 
Q 5181 1925 4959 1925 
z
M 4959 2450 
Q 5541 2450 5875 2112 
Q 6209 1775 6209 1184 
Q 6209 594 5875 251 
Q 5541 -91 4959 -91 
Q 4378 -91 4042 251 
Q 3706 594 3706 1184 
Q 3706 1772 4042 2111 
Q 4378 2450 4959 2450 
z
M 2094 -91 
L 1403 -91 
L 4319 4750 
L 5013 4750 
L 2094 -91 
z
M 1453 4750 
Q 2034 4750 2367 4411 
Q 2700 4072 2700 3481 
Q 2700 2891 2367 2550 
Q 2034 2209 1453 2209 
Q 872 2209 539 2550 
Q 206 2891 206 3481 
Q 206 4072 539 4411 
Q 872 4750 1453 4750 
z
M 1453 4225 
Q 1228 4225 1106 4031 
Q 984 3838 984 3481 
Q 984 3122 1106 2926 
Q 1228 2731 1453 2731 
Q 1678 2731 1798 2926 
Q 1919 3122 1919 3481 
Q 1919 3838 1797 4031 
Q 1675 4225 1453 4225 
z
" transform="scale(0.015625)"/>
     </defs>
     <use xlink:href="#DejaVuSans-Bold-54"/>
     <use xlink:href="#DejaVuSans-Bold-72" transform="translate(57.212891 0)"/>
     <use xlink:href="#DejaVuSans-Bold-61" transform="translate(106.529297 0)"/>
     <use xlink:href="#DejaVuSans-Bold-6e" transform="translate(174.009766 0)"/>
     <use xlink:href="#DejaVuSans-Bold-73" transform="translate(245.201172 0)"/>
     <use xlink:href="#DejaVuSans-Bold-66" transform="translate(304.722656 0)"/>
     <use xlink:href="#DejaVuSans-Bold-6f" transform="translate(348.228516 0)"/>
     <use xlink:href="#DejaVuSans-Bold-72" transform="translate(416.929688 0)"/>
     <use xlink:href="#DejaVuSans-Bold-6d" transform="translate(466.246094 0)"/>
     <use xlink:href="#DejaVuSans-Bold-65" transform="translate(570.445312 0)"/>
     <use xlink:href="#DejaVuSans-Bold-72" transform="translate(638.267578 0)"/>
     <use xlink:href="#DejaVuSans-Bold-20" transform="translate(687.583984 0)"/>
     <use xlink:href="#DejaVuSans-Bold-2b" transform="translate(722.398438 0)"/>
     <use xlink:href="#DejaVuSans-Bold-20" transform="translate(806.1875 0)"/>
     <use xlink:href="#DejaVuSans-Bold-57" transform="translate(841.001953 0)"/>
     <use xlink:href="#DejaVuSans-Bold-61" transform="translate(947.679688 0)"/>
     <use xlink:href="#DejaVuSans-Bold-76" transform="translate(1015.160156 0)"/>
     <use xlink:href="#DejaVuSans-Bold-65" transform="translate(1080.345703 0)"/>
     <use xlink:href="#DejaVuSans-Bold-6c" transform="translate(1148.167969 0)"/>
     <use xlink:href="#DejaVuSans-Bold-65" transform="translate(1182.445312 0)"/>
     <use xlink:href="#DejaVuSans-Bold-74" transform="translate(1250.267578 0)"/>
     <use xlink:href="#DejaVuSans-Bold-20" transform="translate(1298.070312 0)"/>
     <use xlink:href="#DejaVuSans-Bold-41" transform="translate(1332.884766 0)"/>
     <use xlink:href="#DejaVuSans-Bold-72" transform="translate(1410.277344 0)"/>
     <use xlink:href="#DejaVuSans-Bold-63" transform="translate(1459.59375 0)"/>
     <use xlink:href="#DejaVuSans-Bold-68" transform="translate(1518.871094 0)"/>
     <use xlink:href="#DejaVuSans-Bold-69" transform="translate(1590.0625 0)"/>
     <use xlink:href="#DejaVuSans-Bold-74" transform="translate(1624.339844 0)"/>
     <use xlink:href="#DejaVuSans-Bold-65" transform="translate(1672.142578 0)"/>
     <use xlink:href="#DejaVuSans-Bold-63" transform="translate(1739.964844 0)"/>
     <use xlink:href="#DejaVuSans-Bold-74" transform="translate(1799.242188 0)"/>
     <use xlink:href="#DejaVuSans-Bold-75" transform="translate(1847.044922 0)"/>
     <use xlink:href="#DejaVuSans-Bold-72" transform="translate(1918.236328 0)"/>
     <use xlink:href="#DejaVuSans-Bold-65" transform="translate(1967.552734 0)"/>
     <use xlink:href="#DejaVuSans-Bold-20" transform="translate(2035.375 0)"/>
     <use xlink:href="#DejaVuSans-Bold-28" transform="translate(2070.189453 0)"/>
     <use xlink:href="#DejaVuSans-Bold-36" transform="translate(2115.892578 0)"/>
     <use xlink:href="#DejaVuSans-Bold-38" transform="translate(2185.472656 0)"/>
     <use xlink:href="#DejaVuSans-Bold-2e" transform="translate(2255.052734 0)"/>
     <use xlink:href="#DejaVuSans-Bold-35" transform="translate(2293.041016 0)"/>
     <use xlink:href="#DejaVuSans-Bold-25" transform="translate(2362.621094 0)"/>
     <use xlink:href="#DejaVuSans-Bold-20" transform="translate(2462.816406 0)"/>
     <use xlink:href="#DejaVuSans-Bold-41" transform="translate(2497.630859 0)"/>
     <use xlink:href="#DejaVuSans-Bold-63" transform="translate(2575.023438 0)"/>
     <use xlink:href="#DejaVuSans-Bold-63" transform="translate(2634.300781 0)"/>
     <use xlink:href="#DejaVuSans-Bold-75" transform="translate(2693.578125 0)"/>
     <use xlink:href="#DejaVuSans-Bold-72" transform="translate(2764.769531 0)"/>
     <use xlink:href="#DejaVuSans-Bold-61" transform="translate(2814.085938 0)"/>
     <use xlink:href="#DejaVuSans-Bold-63" transform="translate(2881.566406 0)"/>
     <use xlink:href="#DejaVuSans-Bold-79" transform="translate(2940.84375 0)"/>
     <use xlink:href="#DejaVuSans-Bold-29" transform="translate(3006.029297 0)"/>
    </g>
   </g>
  </g>
 </g>
 <defs>
  <clipPath id="p847edb161c">
   <rect x="7.2" y="39.3575" width="892.8" height="665.28"/>
  </clipPath>
 </defs>
</svg>
